<?xml version="1.0" encoding="UTF-8"?><svg id="Layer_1" xmlns="http://www.w3.org/2000/svg" viewBox="0 0 450 125"><path d="M19.64,57.67c-3.93,0-7.35-.77-10.26-2.3-2.91-1.54-5.14-3.73-6.69-6.6-1.55-2.86-2.32-6.29-2.32-10.29v-6.56h11.44v6.28c0,2.75.68,4.88,2.04,6.39,1.36,1.51,3.29,2.27,5.79,2.27s4.58-.76,5.96-2.27c1.39-1.51,2.08-3.64,2.08-6.39V11.82H4.25V.51h35.15v37.97c0,4-.8,7.43-2.39,10.29-1.59,2.86-3.86,5.06-6.79,6.6-2.94,1.54-6.46,2.3-10.57,2.3Z"/><path d="M72.33,57.67c-4.16,0-7.76-.92-10.81-2.76s-5.41-4.47-7.07-7.89c-1.66-3.42-2.5-7.46-2.5-12.11s.83-8.76,2.5-12.18,4.02-6.05,7.07-7.89c3.05-1.84,6.66-2.76,10.81-2.76s7.82.92,10.85,2.76c3.03,1.84,5.37,4.47,7.04,7.89s2.5,7.48,2.5,12.18-.83,8.69-2.5,12.11c-1.66,3.42-4.01,6.05-7.04,7.89-3.03,1.84-6.64,2.76-10.85,2.76ZM72.33,47.62c3.05,0,5.41-1.12,7.07-3.35,1.66-2.23,2.5-5.35,2.5-9.35s-.83-7.19-2.5-9.42c-1.66-2.23-4.02-3.35-7.07-3.35s-5.35,1.12-7.04,3.35c-1.69,2.23-2.53,5.38-2.53,9.42s.84,7.12,2.53,9.35c1.69,2.23,4.03,3.35,7.04,3.35Z"/><path d="M103.46,13.42h18.23v3.91h2.63c.79-1.63,1.95-2.9,3.5-3.8,1.55-.91,3.32-1.36,5.3-1.36,3.37,0,5.92,1.29,7.63,3.87,1.71,2.58,2.56,6.39,2.56,11.41v6.91h-11.44v-5.44c0-3.91-1.43-5.86-4.3-5.86-1.85,0-3.21.84-4.09,2.51-.88,1.67-1.32,4.21-1.32,7.61v13.12h12.06v10.05h-30.02v-10.05h7.14v-22.82h-7.9v-10.05Z"/><path d="M174.52,59.46c-3.47,0-6.47-.92-9.01-2.76-2.54-1.84-4.52-4.44-5.93-7.82-1.41-3.37-2.11-7.39-2.11-12.04s.69-8.6,2.08-11.97c1.39-3.37,3.36-5.98,5.93-7.82,2.57-1.84,5.58-2.76,9.05-2.76,2.08,0,3.96.45,5.65,1.36,1.69.91,2.95,2.15,3.78,3.73h2.56V-.84h11.23v59.19h-11.23v-3.98h-2.56c-.79,1.54-2.03,2.77-3.74,3.7-1.71.93-3.6,1.4-5.68,1.4ZM177.77,49.41c3.05,0,5.4-1.11,7.04-3.32,1.64-2.21,2.46-5.29,2.46-9.25s-.82-7.03-2.46-9.21c-1.64-2.19-3.99-3.28-7.04-3.28s-5.33,1.11-6.97,3.32c-1.64,2.21-2.46,5.29-2.46,9.25s.82,7.03,2.46,9.21c1.64,2.19,3.96,3.28,6.97,3.28Z"/><path d="M236.7,29.19v8.45l-10.19,1.54c-1.43.23-2.57.76-3.4,1.57-.83.81-1.25,1.83-1.25,3.04,0,1.3.44,2.34,1.32,3.11.88.77,2.1,1.15,3.67,1.15,1.71,0,3.25-.36,4.61-1.08,1.36-.72,2.45-1.71,3.26-2.97.81-1.26,1.21-2.63,1.21-4.12v-10.75c0-2.37-.61-4.18-1.84-5.41-1.22-1.23-3.08-1.85-5.58-1.85-1.66,0-3.14.28-4.44.84-1.29.56-2.35,1.36-3.15,2.41s-1.33,2.32-1.56,3.8h-10.75c.28-3.49,1.27-6.49,2.98-9,1.71-2.51,4.01-4.44,6.9-5.79,2.89-1.35,6.25-2.02,10.09-2.02,5.87,0,10.39,1.4,13.55,4.19,3.17,2.79,4.75,6.79,4.75,12v28.06h-10.95v-4.19h-2.56c-.79,1.67-1.98,2.97-3.57,3.87-1.59.91-3.64,1.36-6.14,1.36s-4.88-.52-6.86-1.57-3.54-2.52-4.64-4.43c-1.11-1.91-1.66-4.07-1.66-6.49,0-3.72,1.17-6.76,3.5-9.11,2.33-2.35,5.67-3.9,10.02-4.64l12.69-1.96Z"/><path d="M260.83,56.35V13.42h11.23v3.91h2.57c.92-1.67,2.23-2.97,3.92-3.87,1.69-.91,3.59-1.36,5.72-1.36,2.82,0,5.22.67,7.21,2.02,1.99,1.35,3.51,3.29,4.58,5.83,1.06,2.54,1.59,5.6,1.59,9.18v27.22h-11.23v-24.5c0-3.02-.6-5.32-1.8-6.88-1.2-1.56-2.98-2.34-5.34-2.34s-4.15.78-5.37,2.34c-1.23,1.56-1.84,3.85-1.84,6.88v24.5h-11.23Z"/><path d="M6.68,123.35v-55.84h11.72v44.67h22.88v11.17H6.68Z"/><path d="M78.78,96.2v8.45l-10.19,1.54c-1.43.23-2.57.76-3.4,1.57-.83.81-1.25,1.83-1.25,3.04,0,1.3.44,2.34,1.32,3.11.88.77,2.1,1.15,3.67,1.15,1.71,0,3.25-.36,4.61-1.08,1.36-.72,2.45-1.71,3.26-2.97.81-1.26,1.21-2.63,1.21-4.12v-10.75c0-2.37-.61-4.18-1.84-5.41-1.22-1.23-3.08-1.85-5.58-1.85-1.66,0-3.14.28-4.44.84-1.29.56-2.35,1.36-3.15,2.41s-1.33,2.32-1.56,3.8h-10.75c.28-3.49,1.27-6.49,2.98-9,1.71-2.51,4.01-4.44,6.9-5.79,2.89-1.35,6.25-2.02,10.09-2.02,5.87,0,10.39,1.4,13.55,4.19,3.17,2.79,4.75,6.79,4.75,12v28.06h-10.95v-4.19h-2.56c-.79,1.67-1.98,2.97-3.57,3.87-1.59.91-3.64,1.36-6.14,1.36s-4.88-.52-6.86-1.57-3.54-2.52-4.64-4.43c-1.11-1.91-1.66-4.07-1.66-6.49,0-3.72,1.17-6.76,3.5-9.11,2.33-2.35,5.67-3.9,10.02-4.64l12.69-1.96Z"/><path d="M102.97,80.43h10.75v4.47h6.24l-4.44,3.21c.14-2.88.81-5.11,2.01-6.67,1.2-1.56,2.87-2.34,4.99-2.34s3.63.79,4.78,2.37c1.15,1.58,1.8,3.89,1.94,6.91l-3.81-3.35h9.64l-4.44,3.14c.09-2.93.77-5.18,2.05-6.74,1.27-1.56,3.02-2.34,5.23-2.34s4.03.99,5.3,2.97c1.27,1.98,1.91,4.78,1.91,8.41v32.87h-9.98v-28.55c0-1.3-.27-2.3-.8-3-.53-.7-1.31-1.05-2.32-1.05s-1.78.35-2.29,1.05c-.51.7-.76,1.7-.76,3v28.55h-9.91v-28.55c0-1.3-.27-2.3-.8-3-.53-.7-1.28-1.05-2.25-1.05-1.02,0-1.79.35-2.32,1.05-.53.7-.8,1.7-.8,3v28.55h-9.91v-42.92Z"/><path d="M181.31,124.47c-2.03,0-3.91-.47-5.62-1.4-1.71-.93-2.98-2.16-3.81-3.7h-2.56v3.98h-11.23v-59.19h11.23v20.24h2.56c.83-1.58,2.1-2.83,3.81-3.73,1.71-.91,3.58-1.36,5.62-1.36,3.51,0,6.53.92,9.05,2.76,2.52,1.84,4.48,4.44,5.89,7.82,1.41,3.37,2.11,7.39,2.11,12.04s-.71,8.61-2.11,12c-1.41,3.4-3.37,6-5.89,7.82-2.52,1.81-5.54,2.72-9.05,2.72ZM178.05,114.42c3,0,5.33-1.11,6.97-3.32,1.64-2.21,2.46-5.29,2.46-9.25s-.82-7.03-2.46-9.21c-1.64-2.19-3.96-3.28-6.97-3.28s-5.4,1.11-7.04,3.32c-1.64,2.21-2.46,5.29-2.46,9.25s.82,7.03,2.46,9.21c1.64,2.19,3.99,3.28,7.04,3.28Z"/><path d="M208,80.43h18.23v3.91h2.63c.79-1.63,1.95-2.9,3.5-3.8,1.55-.91,3.32-1.36,5.3-1.36,3.37,0,5.92,1.29,7.63,3.87,1.71,2.58,2.56,6.39,2.56,11.41v6.91h-11.44v-5.44c0-3.91-1.43-5.86-4.3-5.86-1.85,0-3.21.84-4.09,2.51-.88,1.67-1.32,4.21-1.32,7.61v13.12h12.06v10.05h-30.02v-10.05h7.14v-22.82h-7.9v-10.05Z"/><path d="M267.76,97.46h23.64l-3.6,4.12c0-4.23-.74-7.42-2.22-9.56-1.48-2.14-3.67-3.21-6.59-3.21s-5.3,1.12-6.9,3.35-2.39,5.4-2.39,9.49c0,4.37.77,7.69,2.32,9.95,1.55,2.26,3.94,3.38,7.17,3.38,1.85,0,3.48-.42,4.89-1.26,1.41-.84,2.62-2.07,3.64-3.7h10.88c-1.02,3.12-2.44,5.77-4.26,7.96-1.83,2.19-4.04,3.85-6.66,4.99-2.61,1.14-5.54,1.71-8.77,1.71-4.11,0-7.67-.91-10.68-2.72-3-1.82-5.3-4.44-6.9-7.89-1.59-3.44-2.39-7.58-2.39-12.42s.82-8.6,2.46-11.97c1.64-3.37,3.96-5.98,6.97-7.82,3-1.84,6.54-2.76,10.61-2.76s7.21.88,9.98,2.65c2.77,1.77,4.91,4.33,6.41,7.68,1.5,3.35,2.25,7.4,2.25,12.14,0,.7-.02,1.38-.07,2.06-.05.67-.12,1.32-.21,1.92h-29.6v-8.1Z"/><path d="M330.84,124.68c-4.16,0-7.75-.92-10.78-2.76-3.03-1.84-5.37-4.44-7.04-7.82-1.66-3.37-2.5-7.36-2.5-11.97s.84-8.78,2.53-12.25c1.69-3.47,4.08-6.13,7.18-7.99,3.1-1.86,6.75-2.79,10.95-2.79,3.79,0,7.08.77,9.88,2.3,2.8,1.54,5,3.72,6.62,6.56,1.62,2.84,2.5,6.21,2.63,10.12h-10.12c-.6-2.84-1.68-5.04-3.22-6.6-1.55-1.56-3.53-2.34-5.93-2.34-3,0-5.37,1.14-7.11,3.42-1.73,2.28-2.6,5.44-2.6,9.49s.84,7.04,2.53,9.25c1.69,2.21,3.99,3.32,6.9,3.32,2.08,0,3.86-.65,5.34-1.95s2.57-3.14,3.26-5.51h10.12c-.23,3.58-1.18,6.69-2.84,9.32-1.66,2.63-3.85,4.65-6.55,6.07-2.7,1.42-5.79,2.13-9.25,2.13Z"/><path d="M361.63,123.35v-59.19h11.23v20.17h2.57c.92-1.67,2.23-2.97,3.92-3.87,1.69-.91,3.59-1.36,5.72-1.36,2.82,0,5.22.67,7.21,2.02,1.99,1.35,3.51,3.29,4.58,5.83,1.06,2.54,1.59,5.6,1.59,9.18v27.22h-11.23v-24.5c0-3.02-.6-5.32-1.8-6.88-1.2-1.56-2.98-2.34-5.34-2.34s-4.15.78-5.37,2.34c-1.23,1.56-1.84,3.85-1.84,6.88v24.5h-11.23Z"/><path d="M429.56,69.33v11.1h18.58v10.05h-18.58v17.94c0,2.05.35,3.59,1.04,4.64s1.78,1.57,3.26,1.57,2.73-.63,3.6-1.88c.88-1.26,1.62-3.3,2.22-6.14h9.84c-.28,5.86-1.78,10.34-4.51,13.44-2.73,3.09-6.54,4.64-11.44,4.64s-8.67-1.41-11.3-4.22c-2.63-2.81-3.95-6.81-3.95-11.97v-18.01h-8.04v-10.05h8.04v-11.1h11.23Z"/></svg>