<?xml version="1.0" encoding="UTF-8"?><svg id="Layer_1" xmlns="http://www.w3.org/2000/svg" viewBox="0 0 450 125"><path d="M11.16,36.27l15.64-9.17v-14.45L38.34.57h17.59v23.56c0,6.67-2.65,12.8-6.87,17.22l-11.67,12.27c-4.29,4.42-10.22,7.19-16.65,7.19C12.11,60.82,4.35,55.61,0,47.95l11.16-11.68ZM1.13,48.22c3.97,7.06,11.29,11.81,19.61,11.81,12.55,0,22.89-10.82,22.89-23.89V13.44h-16.08v22.5c0,3.96-3.03,7.06-6.81,7.06-2.33,0-4.42-1.19-5.61-3.04L1.13,48.22Z"/><path d="M63.06,19.38l11.54-12.08C78.77,2.94,84.63.24,90.88.24c12.68,0,23.21,11.02,23.21,24.29,0,6.53-2.59,12.67-6.75,17.03l-11.6,12.14c-4.23,4.36-10.03,7.13-16.46,7.13-12.68,0-23.08-10.89-23.08-24.15,0-6.73,2.65-12.87,6.87-17.29ZM79.27,60.03c12.36,0,22.51-10.56,22.51-23.36s-10.15-23.56-22.51-23.56-22.32,10.62-22.32,23.56,10.09,23.36,22.32,23.36ZM79.27,31.32c2.84,0,5.05,2.31,5.05,5.15s-2.21,5.28-5.05,5.28-4.92-2.31-4.92-5.28,2.21-5.15,4.92-5.15Z"/><path d="M114.34,12.64L125.88.57h26.93c7.25,0,13.18,6.2,13.18,13.79,0,3.83-1.45,7.26-3.78,9.7l-2.27,2.38c4.98,5.68,8.14,13.6,8.89,21.84l-11.54,12.14h-18.1c0-2.24-.38-4.42-1.01-6.47l-5.8,6.47h-18.04V12.64ZM115.09,59.63h16.52v-16.1c4.98,3.7,8.2,9.64,8.51,16.1h16.33c-.69-8.18-4.16-15.71-9.4-21.38,3.91-2.24,6.62-6.6,6.62-11.61,0-7.26-5.68-13.2-12.61-13.2h-25.98v46.2ZM131.62,28.68v-4.09h5.23c1.07,0,1.96.92,1.96,2.05s-.88,2.05-1.96,2.05h-5.23Z"/><path d="M169.08,12.64l11.48-12.08h17.28c12.49,0,22.64,10.62,22.64,23.69,0,6.53-2.52,12.67-6.62,16.96l-11.54,12.14c-4.1,4.36-9.84,7.06-16.21,7.06h-17.03V12.64ZM169.83,59.63h16.27c12.17,0,22.07-10.36,22.07-23.1s-9.9-23.1-22.07-23.1h-16.27v46.2ZM185.54,41.55v-10.16h.32c2.71,0,4.86,2.24,4.86,5.08s-2.14,5.08-4.86,5.08h-.32Z"/><path d="M246.08.57h18.48l16.4,47.78-11.6,12.08h-18.35l-1.7-5.87h-7.38l-5.3,5.87h-19.05l17.09-47.78,11.41-12.08ZM235.17,13.44l-16.59,46.2h17.47l1.7-5.87h12.17l1.64,5.87h17.22l-15.89-46.2h-17.72ZM246.39,41.22h-4.92l2.52-8.58,2.4,8.58Z"/><path d="M305.42,53.23l-6.5,7.19h-17.72V12.64l11.54-12.08h17.4l5.11,7.06,6.75-7.06h17.34v47.78l-11.54,12.08h-17.28l-5.11-7.19ZM310.85,59.63h16.21V13.44h-16.21v17.42l-12.68-17.42h-16.21v46.2h16.21v-17.88l12.68,17.88Z"/><path d="M0,79.99l10.81-11.31h16.72v31.22h13.11v13.54l-10.81,11.31H0v-44.75ZM.71,124h28.41v-12.05h-13.11v-31.22H.71v43.27Z"/><path d="M63.73,68.68h17.31l15.36,44.75-10.87,11.31h-17.19l-1.59-5.5h-6.91l-4.96,5.5h-17.84l16.01-44.75,10.69-11.31ZM53.51,80.73l-15.54,43.27h16.36l1.6-5.5h11.4l1.54,5.5h16.12l-14.88-43.27h-16.6ZM64.03,106.75h-4.61l2.36-8.04,2.24,8.04Z"/><path d="M130.42,116.09l-8.68,8.9-3.48-5.44-5.02,5.19h-16.6v-44.75l10.81-11.31h16.36l7.21,11.31,10.81-11.31h16.01v44.75l-10.81,11.31h-16.6v-8.65ZM131.13,124h15.18v-43.27h-15.18l-9.33,14.71-9.27-14.71h-15.18v43.27h15.18v-15.02l9.27,14.65,9.33-14.65v15.02Z"/><path d="M168.99,68.68h25.63c6.56,0,11.87,5.38,11.87,12.12,0,3.21-1.42,6.24-3.48,8.41l-1.77,1.85c3.19,2.1,5.32,5.87,5.32,10.14,0,3.28-1.24,6.3-3.31,8.47l-10.75,11.31c-2.24,2.35-5.32,3.77-8.8,3.77h-25.63v-44.51l10.93-11.56ZM158.77,80.73v43.27h24.93c6.26,0,11.34-5.07,11.34-11.44,0-4.45-2.42-8.28-6.02-10.2,3.54-1.92,5.96-5.69,5.96-10.08,0-6.43-5.08-11.56-11.34-11.56h-24.87ZM173.77,94.76v-3.83h4.13c1,0,1.83.87,1.83,1.92s-.83,1.92-1.83,1.92h-4.13ZM173.77,113.68v-3.83h4.13c1,0,1.83.87,1.83,1.92s-.83,1.92-1.83,1.92h-4.13Z"/><path d="M206.79,79.99l10.81-11.31h25.22c6.79,0,12.35,5.81,12.35,12.92,0,3.58-1.36,6.8-3.54,9.09l-2.13,2.23c4.67,5.32,7.62,12.73,8.33,20.46l-10.81,11.37h-16.95c0-2.1-.35-4.14-.95-6.06l-5.43,6.06h-16.89v-44.75ZM207.5,124h15.47v-15.08c4.67,3.46,7.68,9.02,7.97,15.08h15.3c-.65-7.67-3.9-14.71-8.8-20.03,3.66-2.1,6.2-6.18,6.2-10.88,0-6.8-5.32-12.36-11.81-12.36h-24.33v43.27ZM222.97,95.01v-3.83h4.9c1,0,1.83.87,1.83,1.92s-.83,1.92-1.83,1.92h-4.9Z"/><path d="M288.77,124.74h-30.71v-44.75l10.81-11.31h30.65v15.27l-3.78,3.96v10.14h3.78v15.45l-10.75,11.25ZM272.59,110.03v-1.24h11.7v-12.8h-11.7v-1.17h15.47v-14.09h-29.3v43.27h29.3v-13.97h-15.47Z"/><path d="M336.85,118.31c-4.08,4.27-9.63,6.8-15.48,6.8-11.87,0-21.62-10.2-21.62-22.62,0-6.12,2.24-11.81,6.08-15.82l11.16-11.68c3.9-4.08,9.51-6.61,15.36-6.61,7.8,0,14.83,4.64,18.84,11.5l-10.69,11.56-3.31,1.98,14.18,8.34c-1,1.79-2.01,3.46-3.37,4.88l-11.16,11.68ZM321.37,97.48c1.71,0,3.13.87,3.96,2.16l14.12-8.47c-3.72-6.43-10.46-10.76-18.08-10.76-11.46,0-20.91,9.95-20.91,22.07s9.45,21.88,20.91,21.88c7.74,0,14.59-4.39,18.25-10.94l-14.29-8.41c-.83,1.36-2.3,2.23-3.96,2.23-2.54,0-4.61-2.16-4.61-4.94s2.07-4.82,4.61-4.82Z"/><path d="M372.41,120.35l-4.19,4.39h-16.6v-44.75l10.81-11.31h16.6v4.76l4.55-4.76h16.24v44.75l-10.81,11.31h-16.6v-4.39ZM373.12,124h15.18v-43.27h-15.18v15.14h-5.61v-15.14h-15.18v43.27h15.18v-15.89h5.61v15.89Z"/><path d="M400.05,79.99l10.81-11.31h38.57v12.86l-10.81,11.31v20.58l-10.81,11.31h-16.95v-31.52h-10.81v-13.23ZM400.76,92.48h10.81v31.52h15.54v-31.52h10.81v-11.74h-37.15v11.74Z"/></svg>