<?xml version="1.0" encoding="UTF-8"?><svg id="Layer_1" xmlns="http://www.w3.org/2000/svg" viewBox="0 0 450 125"><text transform="translate(0 -46.28) scale(.53 1)" style="font-family:Oi-Regular, Oi; font-size:95.99px;"><tspan x="0" y="0">Lam</tspan><tspan x="318.32" y="0" style="letter-spacing:-.01em;">b</tspan><tspan x="412.2" y="0" style="letter-spacing:0em;">rec</tspan><tspan x="685.69" y="0" style="letter-spacing:-.05em;">h</tspan><tspan x="778.99" y="0">t</tspan></text><path d="M43.99,12.03l-6.52,35.92c-2.25,12.46-13.12,22.46-24.22,22.46-5.59,0-10.25-2.55-13.12-6.73l2.72-2.46c1.09,1,2.48,1.64,4.19,1.64,4.19,0,8.23-3.73,9.08-8.37l7.69-42.46C25.05,5.49,30.49.21,36.08.21s9.08,5.27,7.92,11.82Z"/><path d="M102.77,29.76c-2.95,16.28-18.25,29.46-34.08,29.46s-26.4-13.18-23.45-29.46C48.19,13.49,63.48.21,79.32.21s26.4,13.28,23.45,29.55ZM82.66,29.76c2.56-14.18.78-25.55-4.04-25.55s-10.71,11.37-13.28,25.55c-2.56,14.09-.78,25.46,4.04,25.46s10.71-11.37,13.28-25.46Z"/><path d="M159.14,44.58c-1.48,8.09-8.23,14.64-15.14,14.64-5.98,0-10.01-4.73-10.01-11.55,0-6-1.63-10.09-4.58-10.09-1.24,0-2.64.82-3.96,2.36l-3.26,17.82h-20.11l9.32-51.28C120.94,2.49,131.19.21,141.51.21c11.1,0,18.56,8.73,16.61,19.55-1.09,5.82-5.36,11-10.79,13.64,2.79,1.45,4.97,4.18,6.29,7.64.47,1.27.7,2.64.7,4,0,.73.54,1.27,1.17,1.27.78,0,1.55-.82,1.79-1.73h1.86ZM138.72,19.76c1.48-8.09-.54-14.64-4.42-14.64-.85,0-1.79.18-2.64.54l-5.2,28.46c1.32-1.09,2.56-2.18,3.96-2.91,3.57-2,7.14-5.27,8.31-11.46Z"/><path d="M184.92,57.77h-24.92l9.63-52.92C177.93,1.85,186.63.21,195.4.21c15.22,0,25.23,12.91,22.36,28.82-2.95,15.91-17.62,28.73-32.84,28.73ZM189.65,5.58l-8.54,46.92c6.91-2.82,13.35-12.28,15.45-23.46,2.02-11.27-1.01-20.64-6.91-23.46Z"/><path d="M273.2,57.77h-21.04l-.62-8.37h-18.01l-1.32,3.18c-1.63,3.82-5.28,6.64-8.85,6.64-5.9,0-8.54-5.18-5.12-12.28L239.97,1.67h20.26c4.42,0,7.61,3.46,8.07,8.18l4.89,47.92ZM235.23,45.4h15.99l-2.25-31.64-13.74,31.64Z"/><path d="M334.22,12.03l-6.44,35.55c-1.16,6.46-6.52,11.64-11.96,11.64-3.65,0-6.37-2.36-7.45-5.82l-8.46-25.64-5.44,30.01h-18.01l10.25-56.1h11.41c3.65,0,6.44,2.36,7.61,5.82l5.9,18.55,2.48-14c1.24-6.55,6.68-11.82,12.27-11.82s9.08,5.27,7.84,11.82Z"/><path d="M32.98,120.37h21.64l-.6,3.33H15.01l7.15-38.99c1-5.58,5.74-10.08,10.49-10.08s7.88,4.5,6.81,10.08l-6.48,35.66Z"/><path d="M105.18,123.7h-18.1l-.53-7.13h-15.49l-1.14,2.71c-1.4,3.25-4.54,5.66-7.61,5.66-5.08,0-7.35-4.42-4.41-10.46l18.7-38.6h17.43c3.81,0,6.54,2.95,6.95,6.98l4.21,40.85ZM72.52,113.16h13.76l-1.94-26.97-11.82,26.97Z"/><path d="M152.13,75.88h20.57l-7.15,38.99c-1,5.58-5.68,10.08-10.49,10.08s-7.81-4.5-6.81-10.08l2.67-14.57-10.95,20.62c-.93,1.78-2.94,4.03-5.88,4.03-2.6,0-3.87-1.55-4.34-4.03l-3.81-19.84-4.14,22.63h-13.89l8.75-47.83h14.69c4.01,0,5.74,3.1,6.01,7.36l1.27,24.88,13.49-32.25Z"/><path d="M214.71,109.36c-1.4,7.91-10.35,14.34-19.9,14.34h-25.98l7.88-43.25c8.62-3.72,17.77-5.81,27.05-5.81,8.62,0,14.56,5.81,13.22,12.94-.8,4.34-4.34,8.14-9.02,10.15,4.88,2.09,7.68,6.51,6.75,11.63ZM198.02,109.36c1.14-5.97-.8-10.16-4.14-10.16-1.14,0-2.27.31-3.41.85l-3.54,19.15c.94.62,1.94.93,3.07.93,3.34,0,6.95-4.81,8.01-10.77ZM201.96,87.58c1-5.35-.93-8.37-3.94-8.37-1.34,0-2.67.46-4.01,1.32l-2.87,15.81c1.27-.54,2.6-1.01,3.94-1.32,3.07-.62,6.14-3.41,6.88-7.44Z"/><path d="M264.94,112.46c-1.27,6.9-7.08,12.48-13.02,12.48-5.14,0-8.62-4.03-8.62-9.84,0-5.12-1.4-8.6-3.94-8.6-1.07,0-2.27.7-3.41,2.02l-2.81,15.19h-17.3l8.01-43.72c8.21-3.41,17.03-5.35,25.91-5.35,9.55,0,15.96,7.44,14.29,16.67-.93,4.96-4.61,9.38-9.28,11.63,2.4,1.24,4.27,3.57,5.41,6.51.4,1.08.6,2.25.6,3.41,0,.62.47,1.09,1,1.09.67,0,1.34-.7,1.54-1.47h1.6ZM247.38,91.3c1.27-6.9-.47-12.48-3.81-12.48-.73,0-1.54.16-2.27.46l-4.47,24.26c1.13-.93,2.2-1.86,3.41-2.48,3.07-1.71,6.14-4.5,7.15-9.77Z"/><path d="M283.51,120.37h21.64l-.6,3.33h-38.94l8.75-47.83h36.8l-.6,3.33h-19.5l-3.14,17.21h17.3l-.6,3.41h-17.3l-3.81,20.54Z"/><path d="M345.42,116.03l1.54,2.33c-4.94,4.03-11.02,6.59-17.16,6.59-13.09,0-21.64-11.24-19.1-25.11,2.54-13.88,15.16-25.19,28.32-25.19,6.14,0,11.29,2.56,14.76,6.59l-2.4,2.33c-1.8-1.86-4.07-2.87-6.68-2.87-6.81,0-13.89,8.53-15.83,19.15-1.94,10.54,2,19.07,8.82,19.07,2.6,0,5.28-1.01,7.75-2.87Z"/><path d="M384.63,75.88h17.3l-7.15,38.99c-1,5.58-5.74,10.08-10.49,10.08s-7.88-4.5-6.81-10.08l2.74-15.04h-8.68l-4.34,23.87h-17.37l8.82-47.83h17.3l-3.74,20.54h8.62l3.81-20.54Z"/><path d="M404.73,75.88h45.35l-.6,3.33h-14.03l-6.55,35.66c-1,5.58-5.68,10.08-10.49,10.08s-7.81-4.5-6.81-10.08l6.55-35.66h-14.03l.6-3.33Z"/></svg>