<?xml version="1.0" encoding="UTF-8"?><svg id="Layer_1" xmlns="http://www.w3.org/2000/svg" viewBox="0 0 450 125"><path d="M28.35,43.4c-8.87,0-15.69-1.33-20.47-3.99-4.78-2.66-7.17-6.38-7.17-11.16,0-1.95.48-3.75,1.43-5.42.96-1.66,2.49-3.02,4.58-4.06,2.1-1.04,4.83-1.57,8.19-1.57,1.21,0,2.5.08,3.85.24,1.35.16,2.67.55,3.96,1.17,1.28.62,2.45,1.6,3.5,2.95,1.05,1.35,1.86,3.19,2.42,5.53l1.89-.27c-.47-2.66-1.62-5-3.46-7.04s-4.35-3.63-7.52-4.78c-3.17-1.15-7-1.73-11.48-1.73-.42-.64-.75-1.51-.98-2.6-.23-1.1-.34-2.28-.32-3.53.02-1.26.16-2.48.42-3.67.26-1.19.64-2.2,1.16-3.05,7.79.32,14.15.53,19.08.64,4.92.11,8.97.16,12.14.16,2.57,0,5.13-.04,7.7-.13,2.57-.09,4.96-.2,7.17-.35,2.22-.14,4.03-.25,5.42-.32.47.85.82,1.87,1.05,3.05.23,1.19.35,2.42.35,3.69s-.09,2.46-.28,3.56c-.19,1.1-.49,1.97-.91,2.6-.7,0-1.4.14-2.1.42-.7.28-1.28.84-1.75,1.67-.47.83-.7,2.12-.7,3.85s.15,3.24.46,4.73c.3,1.49.46,2.89.46,4.2,0,3.61-1.13,6.54-3.39,8.77-2.26,2.23-5.5,3.86-9.7,4.89s-9.19,1.54-14.98,1.54Z"/><path d="M91.91,43.45c-21.33,0-31.99-6.59-31.99-19.76,0-7.19,2.69-12.47,8.08-15.83,5.39-3.36,13.47-5.05,24.25-5.05,11.43,0,19.75,1.66,24.96,4.97,5.2,3.31,7.8,8.19,7.8,14.64,0,7.26-2.75,12.58-8.26,15.97-5.51,3.38-13.79,5.07-24.85,5.07ZM90.58,26.02h3.78v-5.79h-3.78v5.79Z"/><path d="M126.63,42.49c-.47-1.13-.81-2.48-1.02-4.04s-.27-3.12-.17-4.68c.09-1.56.33-2.85.7-3.88,1.07-.21,2.05-.77,2.94-1.67.89-.9,1.33-2.42,1.33-4.54,0-1.81-.24-3.21-.73-4.22s-1.04-1.73-1.65-2.15c-.61-.43-1.14-.66-1.61-.69-.47-1.17-.78-2.56-.95-4.17-.16-1.61-.14-3.21.07-4.81.21-1.59.59-2.9,1.15-3.93,2.19.21,4.67.38,7.42.5,2.75.12,5.58.19,8.47.19s5.74-.03,8.54-.08c2.8-.05,5.11-.11,6.93-.19-.47.39-.96.96-1.47,1.73-.51.76-.97,1.59-1.37,2.47-.4.89-.69,1.73-.88,2.52-.19.8-.21,1.41-.07,1.83.79-1.7,2.03-3.29,3.71-4.78,1.68-1.49,3.86-2.7,6.54-3.64s5.87-1.41,9.56-1.41c4.76,0,8.54,1.01,11.34,3.03,2.8,2.02,4.2,5.19,4.2,9.51s-1.6,7.46-4.79,9.83c-3.2,2.37-7.5,3.56-12.92,3.56-3.41,0-6.12-.63-8.16-1.89-2.03-1.26-3.02-3.05-2.97-5.39h-2.03c-.05,1.98.43,3.63,1.43,4.94,1,1.31,2.51,2.43,4.52,3.35.33.74.55,1.68.67,2.82.12,1.13.15,2.33.1,3.59-.05,1.26-.19,2.44-.42,3.56-.23,1.12-.54,2.03-.91,2.74-1.54-.11-3.5-.22-5.88-.35s-4.9-.23-7.56-.32c-2.66-.09-5.2-.13-7.63-.13-3.5,0-6.64.09-9.41.27-2.78.18-5.12.35-7.04.53Z"/><path d="M214.62,43.4c-4.9,0-9.12-.81-12.67-2.42-3.55-1.61-6.28-3.94-8.19-6.99-1.91-3.05-2.87-6.71-2.87-11,0-6.2,1.74-10.99,5.21-14.37,3.48-3.38,8.53-5.07,15.16-5.07,3.17,0,6.16.63,8.96,1.89,2.8,1.26,5.27,2.79,7.42,4.6l1.54-1.01c-1.03-.88-2.24-1.78-3.64-2.68-1.4-.9-3.34-1.85-5.81-2.84.09-.89.26-1.75.49-2.6.23-.85.51-1.54.84-2.07,2.01.14,4.64.31,7.91.5,3.27.19,6.6.29,10.01.29s6.33-.08,9.07-.24c2.73-.16,5.07-.31,7.03-.45.42.99.72,1.94.91,2.84s.28,1.82.28,2.74c0,1.67-.22,3.3-.67,4.92-.44,1.61-.89,3.35-1.33,5.21-.44,1.86-.67,4.03-.67,6.51,0,2.23.21,3.95.63,5.15s.96,2.06,1.61,2.58c.65.51,1.33.88,2.03,1.09.42,1.2.68,2.6.77,4.2.09,1.59.05,3.14-.14,4.65-.19,1.51-.54,2.74-1.05,3.69-1.87-.18-3.87-.34-6.02-.48-2.15-.14-4.46-.23-6.93-.27-2.38-.04-4.39-.04-6.02,0-1.63.04-3.03.09-4.2.16-1.17.07-2.31.14-3.43.21.56-.53,1.01-1.23,1.37-2.1.35-.87.58-1.78.7-2.74.12-.96.13-1.82.03-2.6-.51,1.49-1.45,2.9-2.8,4.22-1.35,1.33-3.28,2.41-5.77,3.24-2.5.83-5.75,1.25-9.77,1.25ZM221.55,25.6h3.78v-4.94h-3.78v4.94Z"/><path d="M282.03,43.4c-5.6,0-10.02-.55-13.26-1.65-3.24-1.1-5.57-2.53-6.97-4.3-1.4-1.77-2.1-3.68-2.1-5.74,0-3.12,1.45-5.65,4.34-7.6s7.51-2.94,13.86-2.98l14.84-.11v-2.82h-3.85v1.43c-4.76.14-9.45.28-14.07.42s-9.22.09-13.79-.16c-1.17-5.53-1.05-10.87.35-16.05,1.35,0,3,.02,4.94.05,1.94.04,3.99.08,6.16.13s4.3.1,6.4.13c2.1.04,3.97.07,5.6.11-.61,1.06-.95,2.12-1.02,3.19-.07,1.06.13,2.09.6,3.08.23-2.94,1.7-4.98,4.41-6.11,2.71-1.13,6.53-1.7,11.48-1.7,6.39,0,11.29.7,14.7,2.1,3.41,1.4,5.67,3.48,6.79,6.24.56,1.31.8,2.72.73,4.22-.07,1.51-.22,2.97-.45,4.38-.23,1.42-.35,2.69-.35,3.83,0,2.16.46,3.69,1.37,4.6s1.88,1.5,2.91,1.78c.42,1.03.67,2.32.73,3.88.07,1.56.01,3.12-.17,4.68-.19,1.56-.51,2.91-.98,4.04-2.05.35-4.2.59-6.44.72s-4.06.19-5.46.19c-3.55,0-6.32-.32-8.33-.96-2.01-.64-3.01-1.81-3.01-3.51,0-.6.15-1.24.46-1.91.3-.67.67-1.4,1.08-2.18l-1.82-.69c-.84,1.56-2,3.05-3.46,4.46-1.47,1.42-3.5,2.57-6.09,3.45-2.59.88-5.96,1.33-10.12,1.33ZM288.89,27.83h3.85v-3.35h-3.85v3.35Z"/><path d="M328.79,42.49c-.47-1.13-.81-2.48-1.02-4.04s-.27-3.12-.17-4.68c.09-1.56.33-2.85.7-3.88,1.07-.21,2.05-.77,2.94-1.67.89-.9,1.33-2.42,1.33-4.54,0-1.81-.24-3.21-.73-4.22s-1.04-1.73-1.65-2.15c-.61-.43-1.14-.66-1.61-.69-.47-1.17-.78-2.56-.95-4.17-.16-1.61-.14-3.21.07-4.81.21-1.59.59-2.9,1.15-3.93,2.19.21,4.67.38,7.42.5,2.75.12,5.58.19,8.47.19s5.74-.03,8.54-.08c2.8-.05,5.11-.11,6.93-.19-.61.5-1.25,1.34-1.92,2.52-.68,1.19-1.21,2.44-1.61,3.75s-.52,2.46-.38,3.45c1.26-3.15,3.66-5.69,7.21-7.62,3.55-1.93,8.38-2.9,14.49-2.9,2.66,0,4.93.17,6.83.5,1.89.34,3.45.95,4.69,1.83,1.24.89,2.21,2.18,2.91,3.88.65,1.45.96,2.93.91,4.44-.05,1.51-.19,3.01-.42,4.52-.23,1.51-.35,3-.35,4.49,0,1.63.21,2.91.63,3.85s.97,1.64,1.65,2.1c.68.46,1.34.78,2,.96.42,1.03.67,2.32.73,3.88.07,1.56.01,3.12-.17,4.68-.19,1.56-.51,2.91-.98,4.04-1.77-.14-3.92-.31-6.44-.5-2.52-.2-5.69-.29-9.52-.29-3.45,0-6.66.1-9.62.29-2.96.19-5.29.36-6.97.5-.23-.96-.42-2.22-.56-3.8s-.17-3.21-.11-4.92c.07-1.7.25-3.17.53-4.41v-7.33h-2.59v7.33c.33,1.24.52,2.71.59,4.41s.04,3.34-.1,4.92c-.14,1.58-.37,2.84-.7,3.8-1.12-.11-2.34-.22-3.67-.35s-2.95-.23-4.87-.32c-1.91-.09-4.29-.13-7.14-.13-3.5,0-6.64.09-9.41.27-2.78.18-5.12.35-7.04.53Z"/><text transform="translate(0 120.83) scale(.53 1)" style="font-family:Oi-Regular, Oi; font-size:95.99px;"><tspan x="0" y="0">Lam</tspan><tspan x="318.32" y="0" style="letter-spacing:-.01em;">b</tspan><tspan x="412.2" y="0" style="letter-spacing:0em;">rec</tspan><tspan x="685.69" y="0" style="letter-spacing:-.05em;">h</tspan><tspan x="778.99" y="0">t</tspan></text></svg>