<?xml version="1.0" encoding="UTF-8"?><svg id="Layer_1" xmlns="http://www.w3.org/2000/svg" viewBox="0 0 450 125"><path d="M28.35,79.28c-8.87,0-15.69-2.44-20.47-7.31-4.78-4.87-7.17-11.69-7.17-20.46,0-3.57.48-6.88,1.43-9.94.96-3.05,2.49-5.54,4.58-7.45,2.1-1.92,4.83-2.87,8.19-2.87,1.21,0,2.5.15,3.85.44,1.35.29,2.67,1.01,3.96,2.14,1.28,1.14,2.45,2.94,3.5,5.41,1.05,2.47,1.86,5.85,2.42,10.13l1.89-.49c-.47-4.87-1.62-9.17-3.46-12.91-1.84-3.73-4.35-6.66-7.52-8.77-3.17-2.11-7-3.17-11.48-3.17-.42-1.17-.75-2.76-.98-4.77-.23-2.01-.34-4.17-.32-6.48.02-2.3.16-4.55.42-6.72.26-2.17.64-4.04,1.16-5.6,7.79.58,14.15.97,19.08,1.17,4.92.19,8.97.29,12.14.29,2.57,0,5.13-.08,7.7-.24,2.57-.16,4.96-.37,7.17-.63,2.22-.26,4.03-.45,5.42-.58.47,1.56.82,3.43,1.05,5.6.23,2.18.35,4.43.35,6.77s-.09,4.51-.28,6.53c-.19,2.01-.49,3.6-.91,4.77-.7,0-1.4.26-2.1.78-.7.52-1.28,1.54-1.75,3.07-.47,1.53-.7,3.88-.7,7.06s.15,5.94.46,8.67c.3,2.73.46,5.29.46,7.7,0,6.62-1.13,11.98-3.4,16.08s-5.49,7.08-9.69,8.96-9.19,2.83-14.98,2.83Z"/><path d="M91.91,79.38c-21.33,0-31.99-12.08-31.99-36.24,0-13.18,2.69-22.86,8.08-29.03,5.39-6.17,13.47-9.26,24.25-9.26,11.43,0,19.75,3.04,24.96,9.11,5.2,6.07,7.8,15.02,7.8,26.84,0,13.31-2.75,23.07-8.26,29.28-5.51,6.2-13.79,9.3-24.85,9.3ZM90.58,47.43h3.78v-10.62h-3.78v10.62Z"/><path d="M126.63,77.63c-.47-2.08-.81-4.55-1.02-7.4-.21-2.86-.27-5.71-.17-8.57.09-2.86.33-5.23.7-7.11,1.07-.39,2.05-1.41,2.94-3.07s1.33-4.43,1.33-8.33c0-3.31-.25-5.89-.73-7.75-.49-1.85-1.04-3.17-1.65-3.95s-1.14-1.2-1.61-1.27c-.47-2.14-.78-4.69-.95-7.65-.16-2.96-.14-5.89.07-8.82.21-2.92.59-5.32,1.15-7.21,2.19.39,4.67.7,7.42.93,2.75.23,5.58.34,8.47.34s5.74-.05,8.54-.15c2.8-.1,5.11-.21,6.93-.34-.47.72-.96,1.77-1.47,3.17-.51,1.4-.97,2.91-1.37,4.53-.4,1.62-.69,3.17-.88,4.63-.19,1.46-.21,2.58-.07,3.36.79-3.12,2.03-6.04,3.71-8.77,1.68-2.73,3.86-4.95,6.54-6.67,2.68-1.72,5.87-2.58,9.55-2.58,4.76,0,8.54,1.85,11.34,5.55,2.8,3.7,4.2,9.52,4.2,17.44s-1.6,13.67-4.79,18.02c-3.2,4.35-7.5,6.53-12.92,6.53-3.41,0-6.12-1.15-8.15-3.46-2.03-2.3-3.02-5.6-2.98-9.89h-2.03c-.05,3.64.43,6.66,1.43,9.06,1,2.4,2.51,4.45,4.51,6.14.33,1.36.55,3.08.67,5.16.12,2.08.15,4.27.11,6.58-.05,2.31-.19,4.48-.42,6.53-.23,2.05-.54,3.72-.91,5.02-1.54-.2-3.5-.41-5.88-.63-2.38-.23-4.9-.42-7.56-.58-2.66-.16-5.2-.24-7.63-.24-3.5,0-6.64.16-9.42.49-2.78.32-5.12.65-7.03.97Z"/><path d="M214.62,79.28c-4.9,0-9.12-1.48-12.67-4.43-3.55-2.96-6.28-7.22-8.19-12.81-1.91-5.58-2.87-12.31-2.87-20.17,0-11.37,1.74-20.15,5.21-26.35,3.48-6.2,8.53-9.3,15.16-9.3,3.17,0,6.16,1.15,8.96,3.46,2.8,2.31,5.27,5.12,7.42,8.43l1.54-1.85c-1.03-1.62-2.24-3.26-3.64-4.92-1.4-1.66-3.34-3.39-5.81-5.21.09-1.62.26-3.21.49-4.77.23-1.56.51-2.83.84-3.8,2.01.26,4.64.57,7.91.93,3.27.36,6.6.54,10.01.54s6.33-.15,9.06-.44c2.73-.29,5.08-.57,7.04-.83.42,1.82.72,3.56.91,5.21.19,1.66.28,3.33.28,5.02,0,3.05-.22,6.06-.67,9.01-.44,2.96-.89,6.14-1.33,9.55-.44,3.41-.67,7.39-.67,11.93,0,4.09.21,7.24.63,9.45.42,2.21.96,3.78,1.61,4.73.65.94,1.33,1.61,2.03,2,.42,2.21.68,4.77.77,7.7.09,2.92.05,5.76-.14,8.52-.19,2.76-.54,5.02-1.05,6.77-1.87-.33-3.87-.62-6.02-.88-2.15-.26-4.46-.42-6.93-.49-2.38-.07-4.39-.07-6.02,0-1.63.06-3.03.16-4.2.29-1.17.13-2.31.26-3.43.39.56-.97,1.01-2.26,1.37-3.85.35-1.59.58-3.26.7-5.02s.13-3.34.04-4.77c-.51,2.73-1.45,5.31-2.8,7.75s-3.28,4.42-5.77,5.94c-2.5,1.52-5.75,2.29-9.77,2.29ZM221.55,46.65h3.78v-9.06h-3.78v9.06Z"/><path d="M282.03,79.28c-5.6,0-10.02-1.01-13.26-3.02-3.24-2.01-5.57-4.64-6.97-7.89-1.4-3.25-2.1-6.75-2.1-10.52,0-5.71,1.45-10.36,4.34-13.93,2.89-3.57,7.51-5.39,13.86-5.46l14.84-.19v-5.16h-3.85v2.63c-4.76.26-9.45.52-14.07.78-4.62.26-9.22.16-13.79-.29-1.17-10.13-1.05-19.94.35-29.42,1.35,0,3,.03,4.94.1,1.94.07,3.99.15,6.16.24,2.17.1,4.3.18,6.4.24,2.1.07,3.97.13,5.6.19-.61,1.95-.95,3.9-1.02,5.85-.07,1.95.13,3.83.6,5.65.23-5.39,1.7-9.12,4.41-11.2,2.71-2.08,6.53-3.12,11.48-3.12,6.39,0,11.29,1.28,14.7,3.85,3.41,2.57,5.67,6.38,6.79,11.45.56,2.4.8,4.99.73,7.75-.07,2.76-.22,5.44-.46,8.04-.23,2.6-.35,4.94-.35,7.01,0,3.96.46,6.77,1.37,8.43.91,1.66,1.88,2.75,2.9,3.26.42,1.88.67,4.25.74,7.11.07,2.86.01,5.72-.17,8.57-.19,2.86-.51,5.33-.98,7.4-2.05.65-4.2,1.09-6.44,1.32-2.24.23-4.06.34-5.46.34-3.55,0-6.32-.58-8.33-1.75-2.01-1.17-3.01-3.31-3.01-6.43,0-1.1.15-2.27.46-3.51.3-1.23.66-2.56,1.08-3.99l-1.82-1.27c-.84,2.86-2,5.59-3.46,8.18-1.47,2.6-3.5,4.71-6.09,6.33-2.59,1.62-5.96,2.44-10.12,2.44ZM288.89,50.74h3.85v-6.14h-3.85v6.14Z"/><path d="M328.79,77.63c-.47-2.08-.81-4.55-1.02-7.4-.21-2.86-.27-5.71-.17-8.57.09-2.86.33-5.23.7-7.11,1.07-.39,2.05-1.41,2.94-3.07s1.33-4.43,1.33-8.33c0-3.31-.25-5.89-.73-7.75-.49-1.85-1.04-3.17-1.65-3.95s-1.14-1.2-1.61-1.27c-.47-2.14-.78-4.69-.95-7.65-.16-2.96-.14-5.89.07-8.82.21-2.92.59-5.32,1.15-7.21,2.19.39,4.67.7,7.42.93,2.75.23,5.58.34,8.47.34s5.74-.05,8.54-.15c2.8-.1,5.11-.21,6.93-.34-.61.91-1.25,2.45-1.92,4.63-.68,2.18-1.21,4.47-1.61,6.87-.4,2.4-.53,4.52-.38,6.33,1.26-5.78,3.66-10.44,7.21-13.98,3.55-3.54,8.38-5.31,14.49-5.31,2.66,0,4.94.31,6.83.92,1.89.62,3.45,1.74,4.69,3.36,1.24,1.62,2.21,4,2.91,7.11.65,2.66.96,5.38.91,8.13-.05,2.76-.19,5.52-.42,8.28-.23,2.76-.35,5.5-.35,8.23,0,2.99.21,5.34.63,7.06.42,1.72.97,3,1.64,3.85.68.85,1.34,1.43,2,1.75.42,1.88.67,4.25.74,7.11.07,2.86.01,5.72-.17,8.57-.19,2.86-.51,5.33-.98,7.4-1.77-.26-3.92-.57-6.44-.93-2.52-.36-5.69-.54-9.52-.54-3.45,0-6.66.18-9.62.54-2.96.36-5.28.67-6.96.93-.23-1.75-.42-4.08-.56-6.97-.14-2.89-.17-5.89-.11-9.01.07-3.12.25-5.81.53-8.09v-13.45h-2.59v13.45c.33,2.27.52,4.97.59,8.09.07,3.12.04,6.12-.11,9.01-.14,2.89-.37,5.21-.7,6.97-1.12-.2-2.35-.41-3.68-.63-1.33-.23-2.95-.42-4.86-.58-1.91-.16-4.29-.24-7.14-.24-3.5,0-6.64.16-9.42.49-2.78.32-5.12.65-7.03.97Z"/><path d="M1.56,123.5c-.3-.81-.52-1.76-.66-2.87-.13-1.11-.22-2.25-.25-3.43-.03-1.18,0-2.28.13-3.3.12-1.02.28-1.84.48-2.45.4-.13.86-.41,1.39-.83.52-.42.97-1.17,1.36-2.24.39-1.08.58-2.65.58-4.74s-.16-3.58-.48-4.69c-.32-1.11-.73-1.9-1.23-2.37-.5-.47-1.04-.74-1.61-.81-.3-.71-.52-1.6-.66-2.7-.13-1.09-.19-2.23-.18-3.4.02-1.18.11-2.31.28-3.4.17-1.09.42-1.99.76-2.7.81.07,1.85.14,3.13.23,1.28.08,2.65.17,4.11.25,1.46.08,2.88.15,4.26.2,1.38.05,2.59.08,3.63.08,1.51,0,3.08-.04,4.71-.13,1.63-.08,3.14-.19,4.54-.33,1.39-.13,2.51-.24,3.35-.3.3.71.51,1.65.63,2.82.12,1.18.16,2.41.13,3.71-.03,1.29-.12,2.53-.25,3.71-.13,1.18-.34,2.12-.61,2.82-.81,0-1.4.31-1.79.93-.39.62-.64,1.44-.76,2.45-.12,1.01-.18,2.08-.18,3.23v5.24h1.46c-.07-1.58-.06-3.11.03-4.59.08-1.48.19-2.54.33-3.18,1.55-.27,3.3-.44,5.27-.53,1.97-.08,3.95-.08,5.95,0,2,.08,3.79.26,5.37.53.2.88.36,2.11.48,3.71.12,1.6.18,3.36.2,5.29.02,1.93,0,3.83-.03,5.7-.03,1.87-.11,3.52-.23,4.97-.12,1.45-.26,2.49-.43,3.13-3.36-.07-6.87-.21-10.51-.43-3.65-.22-7.37-.33-11.17-.33-1.88,0-3.91.03-6.08.08-2.17.05-4.29.12-6.38.2-2.08.08-3.93.17-5.55.25s-2.79.16-3.53.23Z"/><path d="M62.21,124.35c-4.03,0-7.22-.52-9.55-1.56s-4.01-2.4-5.02-4.08c-1.01-1.68-1.51-3.5-1.51-5.44,0-2.96,1.04-5.36,3.12-7.21,2.08-1.85,5.41-2.79,9.98-2.82l10.69-.1v-2.67h-2.77v1.36c-3.43.13-6.81.27-10.13.4-3.33.13-6.64.08-9.93-.15-.84-5.24-.76-10.32.25-15.23.97,0,2.16.02,3.55.05,1.39.03,2.87.08,4.44.13,1.56.05,3.1.09,4.61.13,1.51.03,2.86.07,4.03.1-.44,1.01-.68,2.02-.73,3.03-.05,1.01.09,1.98.43,2.92.17-2.79,1.23-4.72,3.18-5.8,1.95-1.08,4.71-1.61,8.27-1.61,4.6,0,8.13.66,10.59,1.99,2.45,1.33,4.08,3.3,4.89,5.92.4,1.24.58,2.58.53,4.01-.05,1.43-.16,2.81-.33,4.16s-.25,2.55-.25,3.63c0,2.05.33,3.5.98,4.36.66.86,1.35,1.42,2.09,1.69.3.97.48,2.2.53,3.68.05,1.48,0,2.96-.13,4.44-.13,1.48-.37,2.76-.71,3.83-1.48.33-3.02.56-4.64.68-1.61.12-2.92.18-3.93.18-2.55,0-4.55-.3-6-.91-1.45-.61-2.17-1.71-2.17-3.33,0-.57.11-1.18.33-1.82.22-.64.48-1.33.78-2.07l-1.31-.66c-.61,1.48-1.44,2.89-2.5,4.23-1.06,1.34-2.52,2.44-4.39,3.28-1.87.84-4.29,1.26-7.29,1.26ZM67.15,109.58h2.77v-3.18h-2.77v3.18Z"/><path d="M95.89,123.5c-.34-1.08-.58-2.35-.73-3.83-.15-1.48-.19-2.96-.13-4.44.07-1.48.23-2.71.5-3.68.77-.2,1.48-.73,2.12-1.59.64-.86.96-2.29.96-4.31,0-1.71-.18-3.05-.53-4.01s-.75-1.64-1.18-2.04c-.44-.4-.82-.62-1.16-.66-.34-1.11-.56-2.43-.68-3.96s-.1-3.05.05-4.56.43-2.76.83-3.73c1.58.2,3.34.36,5.29.48,1.95.12,3.85.18,5.7.18,2.32,0,4.51-.03,6.58-.08,2.07-.05,3.76-.11,5.07-.18-.44.47-.9,1.27-1.39,2.39-.49,1.13-.88,2.31-1.16,3.55-.29,1.24-.38,2.34-.28,3.28.91-2.99,2.61-5.4,5.12-7.23s5.84-2.75,10.01-2.75c2.25,0,4.13.28,5.65.83s2.69,1.67,3.53,3.35c-.57.64-1.14,1.32-1.71,2.04s-1.11,1.54-1.61,2.45l1.26.71c1.58-2.79,3.71-5.05,6.38-6.78,2.67-1.73,5.57-2.6,8.7-2.6,2.69,0,4.83.39,6.43,1.16,1.6.77,2.78,2.35,3.55,4.74.47,1.38.69,2.78.66,4.21-.03,1.43-.13,2.86-.3,4.29-.17,1.43-.25,2.85-.25,4.26,0,1.55.15,2.77.45,3.66.3.89.7,1.55,1.18,1.99.49.44.97.74,1.44.91.3.97.48,2.2.53,3.68.05,1.48,0,2.96-.13,4.44-.13,1.48-.37,2.76-.71,3.83-1.28-.13-2.81-.29-4.59-.48s-3.95-.28-6.5-.28c-2.76,0-5.19.09-7.31.28s-3.8.34-5.04.48c-.17-.91-.3-2.11-.4-3.61-.1-1.5-.13-3.05-.08-4.66s.18-3.01.38-4.18v-6.96h-1.87v6.96c.23,1.18.38,2.57.43,4.18s.03,3.17-.08,4.66c-.1,1.5-.27,2.7-.5,3.61-.81-.1-1.61-.21-2.42-.33-.81-.12-1.72-.23-2.75-.33-1.03-.1-2.28-.15-3.76-.15-1.88,0-3.76.1-5.62.3-1.87.2-3.42.37-4.66.5-.17-.91-.3-2.11-.4-3.61-.1-1.5-.13-3.05-.08-4.66.05-1.61.18-3.01.38-4.18v-6.96h-1.87v6.96c.23,1.18.38,2.57.43,4.18.05,1.61.02,3.17-.08,4.66-.1,1.5-.27,2.7-.5,3.61-.81-.1-1.7-.21-2.67-.33-.98-.12-2.18-.22-3.6-.3-1.43-.08-3.25-.13-5.47-.13s-4.41.08-6.38.25-3.64.34-5.02.5Z"/><path d="M195,124.35c-3.29,0-6.01-.27-8.14-.81-2.13-.54-3.85-1.32-5.14-2.34-1.29-1.03-2.34-2.26-3.15-3.71l-1.31.66c.23.5.42.99.55,1.46.13.47.2.92.2,1.36,0,.77-.28,1.38-.83,1.82-.55.44-1.24.74-2.04.91-.81.17-1.61.25-2.42.25-1.21,0-2.55-.15-4.03-.45-.34-.91-.58-2.08-.73-3.5s-.19-2.91-.13-4.44.23-2.87.5-4.01c.5-.17.99-.49,1.46-.96s.86-1.3,1.16-2.5c.3-1.19.45-2.9.45-5.12,0-1.88-.11-3.39-.33-4.51-.22-1.13-.49-2-.81-2.62-.32-.62-.66-1.07-1.01-1.34-.35-.27-.66-.47-.93-.6-.34-1.11-.56-2.39-.68-3.83-.12-1.44-.1-2.88.05-4.31s.43-2.63.83-3.61c1.68.2,3.56.36,5.65.48,2.08.12,4.4.18,6.96.18s4.82-.08,7.01-.23c2.18-.15,3.98-.29,5.39-.43.27.67.46,1.5.58,2.47.12.98.18,1.88.18,2.72-1.04.57-2,1.24-2.87,1.99s-1.68,1.54-2.42,2.34l1.11.96c1.58-1.68,3.38-3.12,5.39-4.33s4.17-1.82,6.45-1.82c4.77,0,8.41,1.63,10.92,4.89,2.5,3.26,3.76,7.8,3.76,13.61,0,4.07-.75,7.55-2.24,10.44-1.5,2.89-3.84,5.1-7.03,6.63-3.19,1.53-7.31,2.29-12.35,2.29ZM191.88,107.47h2.72v-4.69h-2.72v4.69Z"/><path d="M217.79,123.5c-.34-1.08-.58-2.35-.73-3.83-.15-1.48-.19-2.96-.13-4.44.07-1.48.23-2.71.5-3.68.77-.2,1.48-.73,2.12-1.59.64-.86.96-2.29.96-4.31,0-1.71-.18-3.05-.53-4.01s-.75-1.64-1.18-2.04c-.44-.4-.82-.62-1.16-.66-.34-1.11-.56-2.43-.68-3.96s-.1-3.05.05-4.56.43-2.76.83-3.73c1.58.2,3.36.36,5.34.48,1.98.12,4.02.18,6.1.18s4.13-.03,6.15-.08c2.02-.05,3.68-.11,4.99-.18-.34.37-.69.92-1.06,1.64-.37.72-.7,1.5-.98,2.34-.29.84-.5,1.64-.63,2.39-.13.76-.15,1.34-.05,1.74.57-1.61,1.46-3.13,2.67-4.54,1.21-1.41,2.78-2.56,4.71-3.45s4.23-1.34,6.88-1.34c3.43,0,6.15.96,8.17,2.87s3.02,4.92,3.02,9.02-1.15,7.08-3.45,9.33c-2.3,2.25-5.4,3.38-9.3,3.38-2.45,0-4.41-.6-5.87-1.79-1.46-1.19-2.18-2.9-2.14-5.12h-1.46c-.03,1.88.31,3.45,1.03,4.69.72,1.24,1.81,2.3,3.25,3.18.23.71.39,1.6.48,2.67.08,1.08.11,2.21.08,3.4-.03,1.19-.13,2.32-.3,3.38s-.39,1.92-.66,2.6c-1.11-.1-2.52-.21-4.23-.33-1.71-.12-3.53-.22-5.45-.3s-3.75-.13-5.5-.13c-2.52,0-4.78.08-6.78.25-2,.17-3.69.34-5.07.5Z"/><path d="M287.46,124.35c-5.48,0-9.94-.76-13.38-2.29-3.45-1.53-5.97-3.72-7.59-6.58-1.61-2.86-2.42-6.3-2.42-10.33,0-4.64.87-8.37,2.6-11.19,1.73-2.82,4.43-4.88,8.09-6.18,3.66-1.29,8.38-1.94,14.17-1.94,4.3,0,8.14.45,11.52,1.36,3.38.91,6.04,2.24,7.99,4.01s2.92,3.94,2.92,6.53c0,.94-.14,1.89-.43,2.85s-.87,1.82-1.74,2.6c-.87.77-2.18,1.39-3.93,1.87-1.75.47-4.08.71-7.01.71-1.95,0-3.71-.03-5.27-.08-1.56-.05-3-.14-4.31-.28h-2.52v3.73h2.47v-2.02c7.13-.34,14.65-.34,22.59,0,0,3.73-.81,6.87-2.42,9.43-1.61,2.55-4.15,4.5-7.61,5.82-3.46,1.33-8.03,1.99-13.71,1.99ZM286.15,102.78h2.47v-2.92h-2.47v2.92Z"/><path d="M336.52,124.41c-5.71,0-10.34-.82-13.89-2.45s-6.13-3.92-7.76-6.86c-1.63-2.94-2.45-6.38-2.45-10.31s.78-7.25,2.34-10.06c1.56-2.81,3.76-4.97,6.58-6.5,2.82-1.53,6.12-2.29,9.88-2.29s6.51.58,8.55,1.74c2.03,1.16,3.1,3.34,3.2,6.53.37-1.18.51-2.36.43-3.55-.08-1.19-.19-2.36-.33-3.5,1.11,0,2.38-.02,3.81-.05,1.43-.03,2.9-.08,4.41-.13,1.51-.05,2.94-.09,4.29-.13,1.34-.03,2.49-.05,3.43-.05.2.91.36,2.06.48,3.45.12,1.4.19,2.91.23,4.54.03,1.63,0,3.24-.1,4.82s-.25,2.99-.45,4.23c-.97.13-2.22.24-3.73.33s-3.14.14-4.89.18c-1.75.03-3.5.03-5.24,0-1.75-.03-3.35-.09-4.82-.18-1.46-.08-2.63-.19-3.5-.33l-.05-1.87h-2.42v5.9h2.42v-2.07c7.19-.33,14.7-.33,22.54,0-.13,4.2-.98,7.68-2.55,10.44s-3.99,4.81-7.29,6.15-7.66,2.02-13.11,2.02Z"/><path d="M361.62,123.5c-.34-.91-.58-2.08-.73-3.5s-.19-2.91-.13-4.44.23-2.87.5-4.01c.5-.17.99-.49,1.46-.96s.86-1.3,1.16-2.5c.3-1.19.45-2.9.45-5.12,0-1.88-.11-3.39-.33-4.51-.22-1.13-.49-2-.81-2.62-.32-.62-.66-1.07-1.01-1.34-.35-.27-.66-.47-.93-.6-.34-1.11-.56-2.39-.68-3.83-.12-1.44-.1-2.88.05-4.31s.43-2.63.83-3.61c1.68.2,3.56.36,5.65.48,2.08.12,4.4.18,6.96.18s4.82-.08,7.01-.23c2.18-.15,3.98-.29,5.39-.43.33.94.6,2.05.78,3.33.18,1.28.14,2.35-.13,3.23-.77.6-1.61,1.39-2.5,2.37-.89.98-1.72,2.13-2.5,3.48l1.26.66c1.04-1.78,2.29-3.33,3.76-4.66,1.46-1.33,3.04-2.36,4.74-3.1s3.4-1.11,5.12-1.11c1.95,0,3.6.16,4.94.48,1.34.32,2.47.9,3.38,1.74.91.84,1.61,2.07,2.12,3.68.47,1.38.69,2.78.66,4.21-.03,1.43-.13,2.86-.3,4.29-.17,1.43-.25,2.85-.25,4.26,0,1.55.15,2.77.45,3.66.3.89.7,1.55,1.19,1.99.49.44.97.74,1.44.91.3,1.14.48,2.48.53,4.01s0,3.01-.13,4.44c-.13,1.43-.37,2.6-.71,3.5-1.28-.13-2.82-.29-4.64-.48-1.82-.18-4.1-.28-6.86-.28-2.49,0-4.8.09-6.93.28s-3.81.34-5.02.48c-.17-.91-.3-2.11-.4-3.61-.1-1.5-.13-3.05-.08-4.66.05-1.61.18-3.01.38-4.18v-6.96h-1.87v6.96c.24,1.18.38,2.57.43,4.18.05,1.61.03,3.17-.08,4.66-.1,1.5-.27,2.7-.5,3.61-.81-.1-1.69-.21-2.65-.33-.96-.12-2.13-.22-3.5-.3s-3.09-.13-5.14-.13c-2.52,0-4.78.08-6.78.25-2,.17-3.69.34-5.07.5Z"/><path d="M429.94,124.35c-5.01,0-8.86-.66-11.54-1.99-2.69-1.33-4.44-3.3-5.24-5.92-.37-1.18-.55-2.47-.53-3.88.02-1.41.11-3.01.28-4.79.17-1.78.27-3.76.3-5.95h-3.28c-.17-.94-.29-2-.35-3.18-.07-1.18-.07-2.36,0-3.55.07-1.19.18-2.26.35-3.2.87-.71,1.72-1.4,2.55-2.09.82-.69,1.55-1.5,2.19-2.44.64-.94,1.08-2.15,1.31-3.63,1.21.17,2.68.29,4.41.35,1.73.07,3.58.09,5.55.08,1.97-.02,3.89-.07,5.77-.15,1.88-.08,3.55-.19,4.99-.33.2.64.37,1.28.5,1.92.13.64.23,1.26.3,1.87h10.99c.17.6.29,1.51.35,2.72s.08,2.48.03,3.81c-.05,1.33-.18,2.46-.38,3.4l-13.92.05v10.54h1.46l.05-8.72c.74-.27,1.66-.48,2.75-.63,1.09-.15,2.24-.23,3.45-.23s2.37.08,3.48.23,2.05.36,2.82.63c.1.17.24.73.4,1.69.17.96.31,2.12.43,3.48.12,1.36.18,2.73.18,4.11,0,1.48-.16,2.97-.48,4.49-.32,1.51-.88,2.95-1.69,4.31-.81,1.36-1.95,2.57-3.43,3.63-1.48,1.06-3.37,1.89-5.67,2.5-2.3.6-5.1.91-8.39.91Z"/></svg>