<?xml version="1.0" encoding="UTF-8"?><svg id="Layer_1" xmlns="http://www.w3.org/2000/svg" viewBox="0 0 450 125"><path d="M34.89,123.3c-.24.43-.57.59-.99.5-2.79-.28-5.57-.51-8.34-.67-2.77-.17-5.55-.2-8.34-.11-.43,0-1.22.01-2.38.04-1.16.02-2.39.06-3.69.11-1.3.05-2.53.08-3.69.11-1.16.02-1.93.06-2.31.11-.24.05-.46.08-.67.11-.21.02-.44-.01-.67-.11-.47-.05-.76-.36-.85-.92-.14-.14-.26-.4-.35-.78-.19-3.27-.31-6.53-.36-9.8-.05-3.27-.14-6.53-.28-9.8-.14-3.69-.3-7.35-.46-10.97-.17-3.62-.34-7.28-.53-10.97-.05-.8-.07-1.61-.07-2.41s-.07-1.61-.21-2.41c-.1-.38-.08-.78.04-1.21.12-.43.37-.71.75-.85.24-.09.67-.11,1.31-.04.64.07,1.08.13,1.31.18,2.51.05,4.98.04,7.42-.04,2.44-.07,4.89-.01,7.35.18.66.1.99.45.99,1.07.09.24.12.69.07,1.35-.05.66-.09,1.11-.14,1.35-.05.43-.1,1.17-.14,2.24-.05,1.06-.11,2.3-.18,3.69-.07,1.4-.14,2.87-.21,4.4-.07,1.54-.14,3.01-.21,4.4-.07,1.4-.13,2.64-.18,3.73-.05,1.09-.07,1.85-.07,2.27,0,.47-.02,1.4-.07,2.77s-.08,2.84-.11,4.4c-.02,1.56-.06,3.03-.11,4.4-.05,1.37-.09,2.3-.14,2.77.57-.05,1.63-.08,3.2-.11,1.56-.02,3.23-.05,5-.07,1.78-.02,3.44-.04,5.01-.04h3.19c.47.1.78.36.92.78.09.1.14.19.14.28.24.33.26.69.07,1.06-.05,1.37-.08,2.72-.11,4.05-.02,1.33-.08,2.65-.18,3.98,0,.52-.24.85-.71.99Z"/><path d="M39.68,124.43c-.38.14-.72.06-1.03-.25s-.42-.67-.32-1.1c-.38-.28-.52-.62-.43-.99,0-.09.07-.28.21-.57.14-.28.24-.47.28-.57.14-.33.39-1.04.75-2.13.35-1.09.73-2.25,1.14-3.48.4-1.23.78-2.39,1.14-3.48.36-1.09.58-1.8.67-2.13.71-2.03,1.44-4.02,2.2-5.96.76-1.94,1.54-3.9,2.34-5.89,1.18-2.98,2.41-5.93,3.69-8.84,1.28-2.91,2.63-5.79,4.05-8.63.43-.85.86-1.7,1.31-2.56.45-.85.91-1.7,1.38-2.56-.05-.24-.02-.5.07-.78.09-.28.26-.47.5-.57.19-.09.52-.17.99-.21.47-.05.98-.09,1.53-.14.54-.05,1.04-.08,1.49-.11.45-.02.79-.04,1.03-.04,1.89-.05,3.76-.09,5.61-.14,1.85-.05,3.69-.07,5.54-.07.09,0,.22.04.39.11.17.07.27.11.32.11.38-.09.71.02.99.35.28.33.52.64.71.92.33.62.78,1.59,1.35,2.91.57,1.33,1.18,2.85,1.85,4.58.66,1.73,1.35,3.55,2.06,5.47s1.38,3.74,2.02,5.47c.64,1.73,1.19,3.29,1.67,4.69.47,1.4.83,2.4,1.07,3.02,1.04,3.22,2,6.44,2.88,9.66.88,3.22,1.74,6.46,2.59,9.73.05.19.14.54.28,1.06.14.52.26.85.35.99.28.33.37.69.25,1.07-.12.38-.39.61-.82.71-.99.24-2,.32-3.02.25-1.02-.07-2.05-.13-3.09-.18-.38,0-1.11-.01-2.2-.04-1.09-.02-2.27-.05-3.55-.07-1.28-.02-2.47-.04-3.58-.04h-2.17c-.14-.05-.32-.13-.53-.25s-.37-.18-.46-.18c-.71.09-1.11-.24-1.21-.99,0-.19-.04-.54-.11-1.07-.07-.52-.15-1.08-.25-1.67-.1-.59-.19-1.14-.28-1.63-.1-.5-.17-.84-.21-1.03-1.23-.05-2.47-.09-3.73-.14-1.25-.05-2.5-.09-3.73-.14-.71-.05-1.43-.04-2.17.04-.73.07-1.46.15-2.17.25-.1.33-.15.66-.18.99-.02.33-.08.69-.18,1.07-.05.24-.09.54-.14.92-.05.38-.11.77-.18,1.17-.07.4-.15.78-.25,1.14-.1.35-.24.6-.43.75-.05.28-.17.53-.36.75-.19.21-.43.32-.71.32-1.09,0-2.18-.02-3.27-.07-1.09-.05-2.18-.1-3.27-.14-1.04-.05-2.07-.05-3.09,0-1.02.05-2.02.07-3.02.07-.19,0-.5.01-.92.04-.43.02-.89.05-1.38.07-.5.02-.96.05-1.38.07-.43.02-.73.06-.92.11ZM61.41,107.68c2.84-.09,5.66-.09,8.45,0-.38-3.31-.76-6.63-1.14-9.94-.38-3.31-.83-6.63-1.35-9.94-.99,3.31-2.02,6.6-3.09,9.87-1.07,3.27-2.02,6.6-2.88,10.01Z"/><path d="M111.82,124.29c-.14.05-.4.04-.78-.04-.38-.07-.64-.11-.78-.11-1.89-.24-3.79-.32-5.68-.25-1.89.07-3.79.08-5.68.04-.38,0-.77-.02-1.17-.07-.4-.05-.77-.12-1.1-.21-.33-.09-.58-.24-.75-.43-.17-.19-.2-.47-.11-.85.14-.71.28-1.81.43-3.3.14-1.49.26-3.18.36-5.08.09-1.89.18-3.88.25-5.96.07-2.08.12-4.07.14-5.96.02-1.89.05-3.6.07-5.11.02-1.51.04-2.63.04-3.34,0-2.93-.01-5.83-.04-8.7-.02-2.86.01-5.76.11-8.7,0-.19.02-.58.07-1.17.05-.59.05-.96,0-1.1-.09-.47.05-.84.43-1.1.38-.26.76-.27,1.14-.04.19.1.46.15.82.18.35.02.75.02,1.17,0,.43-.02.83-.06,1.21-.11.38-.05.66-.07.85-.07,3.12-.28,6.25-.43,9.37-.43h.99c.43,0,.88.01,1.35.04.47.02.9.07,1.28.14.38.07.66.2.85.39.14.09.26.33.36.71.14.14.31.47.5.99.19.52.33.88.43,1.06.38.95.73,1.88,1.06,2.8s.71,1.86,1.14,2.8c1.18,2.56,2.4,5.04,3.66,7.46,1.25,2.41,2.45,4.9,3.59,7.46.19-.43.52-1.2.99-2.31.47-1.11,1.02-2.39,1.63-3.83.61-1.44,1.27-2.97,1.95-4.58.69-1.61,1.34-3.15,1.95-4.61.62-1.47,1.16-2.76,1.63-3.87.47-1.11.8-1.9.99-2.38-.09-.66.21-1.04.92-1.14.05-.05.13-.11.25-.18.12-.07.2-.13.25-.18.14-.05.31-.06.5-.04.19.02.36.04.5.04,2.56.1,5.1.18,7.63.25,2.53.07,5.08.08,7.63.04.47,0,.83.19,1.06.57.24.05.46.18.67.39s.32.44.32.67v7.49c0,2.49.02,4.98.07,7.49,0,.62.04,1.66.11,3.12.07,1.47.15,3.16.25,5.08s.2,3.93.32,6.04.24,4.12.36,6.03c.12,1.92.22,3.61.32,5.08.09,1.47.17,2.51.21,3.12,0,.09.02.31.07.64.05.33.09.67.14,1.03.05.36.09.69.14.99.05.31.07.51.07.6.05.38-.05.69-.28.92s-.54.33-.92.28c-.09,0-.15.02-.18.07-.02.05-.08.07-.18.07-.14.05-.36.07-.64.07-.47,0-1.36.02-2.66.07-1.3.05-2.67.1-4.12.14-1.44.05-2.82.07-4.12.07s-2.19-.05-2.66-.14c-.38.09-.72.02-1.03-.21-.31-.24-.44-.54-.39-.92.05-.52.09-1.37.14-2.56.05-1.18.07-2.53.07-4.05v-16.26c-.19.38-.53,1.16-1.03,2.34-.5,1.18-1.03,2.45-1.6,3.8-.57,1.35-1.11,2.62-1.63,3.8-.52,1.18-.85,1.96-.99,2.34-.62,1.37-1.18,2.77-1.7,4.19-.52,1.42-1.11,2.82-1.77,4.19-.1.14-.24.47-.43.99-.19.52-.35.85-.5.99-.09.1-.25.2-.46.32-.21.12-.37.18-.46.18-.19.05-.57.08-1.14.11-.57.02-1.18.05-1.85.07-.66.02-1.28.04-1.85.04h-1.14c-.33.05-.62-.07-.85-.35-.24-.28-.4-.57-.5-.85-.14-.57-.46-1.43-.96-2.59s-1.09-2.45-1.77-3.87c-.69-1.42-1.42-2.9-2.2-4.44-.78-1.54-1.53-3.02-2.24-4.44s-1.37-2.67-1.99-3.76c-.62-1.09-1.07-1.89-1.35-2.41-.14,2.6-.23,5.21-.25,7.81-.02,2.6.01,5.21.11,7.81,0,.28.02.78.07,1.49.05.71.09,1.46.14,2.24.05.78.07,1.53.07,2.24s-.02,1.21-.07,1.49c-.05.24-.2.47-.46.71-.26.24-.51.4-.75.5Z"/><path d="M180.65,123.86c-.24.05-.62.08-1.14.11-.52.02-1.06.04-1.63.04s-1.12-.01-1.67-.04c-.54-.02-.91-.04-1.1-.04s-.31-.02-.36-.07c-.09-.05-.17-.05-.21,0-.05.05-.12.07-.21.07-1.42,0-2.83-.01-4.22-.04-1.4-.02-2.8-.08-4.22-.18-.62-.05-1.24-.13-1.88-.25-.64-.12-.96-.49-.96-1.1,0-.52.02-1.46.07-2.8.05-1.35.11-2.89.18-4.62.07-1.73.14-3.57.21-5.54.07-1.96.14-3.81.21-5.54.07-1.73.13-3.27.18-4.61.05-1.35.07-2.28.07-2.8v-6.04c0-1.42-.01-2.91-.04-4.47-.02-1.56-.04-3.05-.04-4.47s-.01-2.67-.04-3.76c-.02-1.09-.04-1.85-.04-2.27,0-.14-.01-.4-.04-.78-.02-.38-.01-.64.04-.78.09-.33.29-.56.6-.67.31-.12.63-.11.96.04,2.65.05,5.27.11,7.85.18,2.58.07,5.19.06,7.85-.04.14-.09.28-.13.43-.11.14.02.28.04.43.04,2.32-.05,4.65-.07,6.99-.07s4.65.33,6.92.99c1.37.38,2.62,1.08,3.73,2.09,1.11,1.02,2,2.14,2.66,3.37.52,1.09.86,2.25,1.03,3.48.17,1.23.15,2.46-.04,3.69-.14,1.14-.4,2.27-.78,3.41-.38,1.14-.92,2.18-1.63,3.12-.76,1.04-1.75,1.86-2.98,2.45-1.23.59-2.46,1.01-3.69,1.24,1.09.38,2.15.84,3.2,1.38,1.04.54,1.96,1.22,2.77,2.02.57.52,1.08,1.12,1.53,1.81.45.69.84,1.38,1.17,2.09.47,1.04.78,2.14.92,3.3.14,1.16.17,2.28.07,3.37-.1.81-.24,1.56-.43,2.27-.19.71-.43,1.42-.71,2.13-.52,1.37-1.31,2.62-2.38,3.73-1.06,1.11-2.26,1.95-3.58,2.52-1.33.57-2.7.98-4.12,1.24-1.42.26-2.84.39-4.26.39-.1,0-.19.01-.28.04-.1.02-.19.04-.28.04-.99.24-2.01.36-3.05.36s-2.06-.05-3.05-.14c-.33.24-.66.31-.99.21ZM181.79,114.63c.38.1.78.15,1.21.18.43.02.83-.01,1.21-.11.66-.09,1.14-.36,1.42-.78.28-.38.45-.82.5-1.31.05-.5.12-.98.21-1.46.05-.47.07-1.01.07-1.6s-.05-1.17-.14-1.74c-.09-.57-.26-1.08-.5-1.53-.24-.45-.57-.77-.99-.96-.28-.09-.79-.12-1.53-.07-.73.05-1.22.1-1.46.14-.1,1.99-.1,3.98,0,5.96,0,.09-.01.15-.04.18-.02.02-.04.08-.04.18-.05.1-.05.17,0,.21.05.05.07.12.07.21v2.49ZM182.36,81.34c0,1.42-.01,2.84-.04,4.26-.02,1.42-.04,2.84-.04,4.26h.71c.33,0,.67-.01,1.03-.04.36-.02.69-.06.99-.11.31-.05.53-.12.67-.21.24-.14.4-.45.5-.92.09-.47.17-.83.21-1.07.05-.33.08-.77.11-1.31.02-.54.02-1.1,0-1.67-.02-.57-.08-1.11-.18-1.63-.1-.52-.24-.9-.43-1.14-.28-.38-.83-.56-1.63-.53-.81.02-1.45.06-1.92.11Z"/><path d="M245.64,123.79c-.99.09-1.99.14-2.98.14s-2.01-.02-3.05-.07c-.24-.05-.72-.1-1.46-.14-.73-.05-1.22-.02-1.46.07-.14.05-.28.05-.43,0-.14-.05-.28-.05-.43,0-.28.09-.57.08-.85-.04s-.47-.32-.57-.6c-.14-.57-.53-1.5-1.17-2.8s-1.34-2.69-2.09-4.15c-.76-1.47-1.49-2.84-2.2-4.12-.71-1.28-1.21-2.18-1.49-2.7.14,2.13.25,4.22.32,6.28.07,2.06.13,4.13.18,6.21,0,.47-.17.83-.5,1.06-.33.24-.71.24-1.14,0-2.75.05-5.48.14-8.2.28-2.72.14-5.46.19-8.2.14-.52,0-.97-.18-1.35-.53-.38-.35-.45-.77-.21-1.24.09-.14.17-.46.21-.96.05-.5.09-.82.14-.96.52-5.16.66-10.32.43-15.48-.24-5.16-.47-10.32-.71-15.48-.1-2.32-.15-4.64-.18-6.96-.02-2.32-.18-4.62-.46-6.89,0-.43.12-.76.35-.99.14-.66.62-1.04,1.42-1.14h2.13c1.04,0,2.17.01,3.37.04,1.21.02,2.33.06,3.37.11,1.04.05,1.75.07,2.13.07,1.99.05,3.98.08,5.96.11,1.99.02,3.98.08,5.96.18,1.99.05,3.98.24,5.96.57,1.99.33,3.83.97,5.54,1.92,1.37.76,2.6,1.74,3.69,2.95s1.94,2.54,2.56,4.01c.05.14.14.37.28.67.14.31.27.64.39.99.12.35.21.7.28,1.03.07.33.08.59.04.78.14.24.24.52.28.85.05.33.09.64.14.92.24,1.85.26,3.75.07,5.72-.19,1.96-.69,3.78-1.49,5.43-.43.85-.97,1.63-1.63,2.34s-1.4,1.35-2.2,1.92c-.66.47-1.35.85-2.06,1.14-.71.28-1.47.54-2.27.78.76,1.18,1.42,2.4,1.99,3.66.57,1.25,1.14,2.5,1.7,3.73.76,1.52,1.51,3.02,2.27,4.51.76,1.49,1.54,2.99,2.34,4.51.24.43.27.84.11,1.24-.17.4-.51.58-1.03.53-.14.05-.39.09-.75.14-.36.05-.74.08-1.14.11-.4.02-.79.05-1.17.07-.38.02-.64.04-.78.04ZM225.61,84.74c.24,1.8.43,3.58.57,5.36.14,1.77.26,3.56.36,5.36.43,0,1-.04,1.74-.11.73-.07,1.48-.18,2.24-.32.76-.14,1.47-.32,2.13-.53.66-.21,1.14-.48,1.42-.82.52-.61.77-1.53.75-2.73-.02-1.21-.2-2.19-.53-2.95-.24-.57-.62-1.05-1.14-1.46-.52-.4-1.09-.72-1.7-.96-.95-.38-1.91-.61-2.88-.71-.97-.09-1.95-.14-2.95-.14Z"/><path d="M294.04,124.29h-2.24c-1.07,0-2.27-.02-3.62-.07-1.35-.05-2.79-.08-4.33-.11-1.54-.02-2.98-.06-4.33-.11-1.35-.05-2.54-.08-3.59-.11-1.04-.02-1.77-.04-2.2-.04-.14,0-.28.01-.43.04-.14.02-.26.01-.35-.04-.24.05-.62.08-1.14.11-.52.02-1.06.04-1.63.04s-1.12-.01-1.67-.04c-.54-.02-.91-.04-1.1-.04s-.31-.02-.36-.07c-.09-.05-.17-.05-.21,0-.05.05-.12.07-.21.07-1.42,0-2.83-.01-4.22-.04-1.4-.02-2.8-.08-4.22-.18-.62-.05-1.24-.13-1.88-.25-.64-.12-.96-.49-.96-1.1,0-.52.02-1.46.07-2.8.05-1.35.11-2.89.18-4.62.07-1.73.14-3.57.21-5.54.07-1.96.14-3.81.21-5.54.07-1.73.13-3.27.18-4.61.05-1.35.07-2.28.07-2.8v-6.04c0-1.42-.01-2.91-.04-4.47-.02-1.56-.04-3.05-.04-4.47s-.01-2.67-.04-3.76c-.02-1.09-.04-1.85-.04-2.27,0-.14-.01-.4-.04-.78-.02-.38-.01-.64.04-.78.09-.33.29-.56.6-.67.31-.12.63-.11.96.04,1.28.05,2.57.08,3.87.11,1.3.02,2.59.04,3.87.04h7.81c.19,0,.37-.01.53-.04.17-.02.34.01.53.11,2.18,0,4.33-.02,6.46-.07,2.13-.05,4.28-.12,6.46-.21,1.14-.05,2.27-.06,3.41-.04,1.14.02,2.29.01,3.48-.04h.14c.38-.09.71-.02.99.21.28.24.43.54.43.92,0,.9.02,1.79.07,2.66.05.88.09,1.76.14,2.66v1.07c0,.47-.02.97-.07,1.49-.05.52-.09,1.03-.14,1.53-.05.5-.1.84-.14,1.03-.14.47-.5.71-1.07.71h-14.16c-1.35,0-2.53.01-3.55.04-1.02.02-1.74.04-2.17.04v3.8c0,1.25-.02,2.52-.07,3.8,2.56.1,5.12.19,7.7.28,2.58.09,5.15.12,7.7.07.24,0,.5.08.78.25.28.17.47.34.57.53.19.38.17.73-.07,1.07,0,.24.01.71.04,1.42.02.71.04,1.47.04,2.27v3.69c0,.1-.04.33-.11.71-.07.38-.08.62-.04.71.09.43-.05.78-.43,1.07-.38.28-.78.35-1.21.21l-.07-.07c-2.56-.09-5.11-.17-7.67-.21-2.56-.05-5.11-.09-7.67-.14-.1,2.18-.1,4.33,0,6.46,0,.05-.02.12-.07.21-.05.09-.07.17-.07.21.09.24.14.59.14,1.06,6.44.19,12.87.33,19.31.43.38-.24.75-.26,1.1-.07.36.19.56.47.6.85,0,.24-.02.47-.07.71-.05.24-.07.47-.07.71,0,1.23.04,2.43.11,3.59.07,1.16.01,2.33-.18,3.51.24.38.26.76.07,1.14-.19.38-.5.57-.92.57Z"/><path d="M327.17,124.5c-2.23.09-4.43.15-6.6.18-2.18.02-4.35-.06-6.53-.25-1.56-.1-3.09-.44-4.58-1.03-1.49-.59-2.83-1.38-4.01-2.38-1.09-.95-2.02-2.01-2.8-3.19-.78-1.18-1.43-2.44-1.95-3.76-.38-.99-.66-2-.85-3.02-.19-1.02-.33-2.05-.43-3.09-.05-.33-.1-.98-.14-1.95-.05-.97-.08-2-.11-3.09-.02-1.09-.05-2.12-.07-3.09-.02-.97-.04-1.62-.04-1.95-.1-2.27-.11-4.57-.04-6.89.07-2.32.41-4.62,1.03-6.89.43-1.61,1.09-3.16,1.99-4.65.9-1.49,1.99-2.78,3.27-3.87,1.18-.99,2.52-1.8,4.01-2.41,1.49-.61,3.02-.97,4.58-1.07,2.18-.14,4.35-.21,6.53-.21s4.38.05,6.6.14c1.8.09,3.63.26,5.5.5,1.87.24,3.63.73,5.29,1.49,1.14.52,2.19,1.22,3.16,2.09.97.88,1.83,1.81,2.59,2.8.71.95,1.14,1.92,1.28,2.91.14,1.37.17,2.73.07,4.08-.1,1.35-.14,2.71-.14,4.08,0,.47-.24.83-.71,1.06-.09.43-.4.69-.92.78-1.94.14-3.86.26-5.75.36-1.89.09-3.83.19-5.82.28-.47,0-1.04.02-1.7.07-.66.05-1.07-.14-1.21-.57-.1-.14-.19-.27-.28-.39-.1-.12-.14-.25-.14-.39-.09-.57-.18-1.12-.25-1.67-.07-.54-.23-1.08-.46-1.6-.38-.85-1.02-1.51-1.92-1.99-.95-.52-1.92-.53-2.91-.04-.99.5-1.75,1.22-2.27,2.17-.1.14-.2.42-.32.82-.12.4-.23.83-.32,1.28-.1.45-.17.89-.21,1.31-.05.43-.07.74-.07.92-.05.38-.1,1.11-.14,2.2-.05,1.09-.09,2.25-.14,3.48-.05,1.23-.08,2.39-.11,3.48-.02,1.09-.01,1.82.04,2.2.09.99.3,1.99.6,2.98s.79,1.89,1.46,2.7c.38.47.86.86,1.46,1.17.59.31,1.2.44,1.81.39.66-.09,1.3-.38,1.92-.85.62-.47,1.07-1.02,1.35-1.63.05-.09.11-.29.18-.6.07-.31.14-.63.21-.96.07-.33.13-.64.18-.92.05-.28.07-.5.07-.64,0-.09.06-.25.18-.46.12-.21.22-.37.32-.46.19-.28.47-.43.85-.43h1.07c2.08.1,4.15.19,6.21.28,2.06.1,4.13.24,6.21.43.52,0,.85.26.99.78.43.19.66.54.71,1.06,0,.33.01.91.04,1.74.02.83.04,1.7.04,2.63s-.01,1.79-.04,2.59c-.02.81-.06,1.37-.11,1.7-.09.43-.25.83-.46,1.21-.21.38-.44.76-.67,1.14-.81,1.04-1.68,2-2.63,2.88-.95.88-1.99,1.57-3.12,2.09-1.66.76-3.42,1.24-5.29,1.46s-3.7.37-5.5.46Z"/><path d="M402.77,124.43c-.19.05-.54.07-1.07.07h-4.47s-.1-.01-.14-.04c-.05-.02-.1-.04-.14-.04-.09-.05-.17-.06-.21-.04-.05.02-.12.04-.21.04h-4.22c-1.4,0-2.8-.05-4.22-.14-.62-.05-1.24-.13-1.88-.25-.64-.12-.96-.49-.96-1.1,0-.57.02-1.7.07-3.41.05-1.7.11-3.54.18-5.5.07-1.96.14-3.8.21-5.5.07-1.7.11-2.84.11-3.41-2.94,0-5.86.01-8.77.04-2.91.02-5.83.06-8.77.11-.05,2.04-.05,4.07,0,6.11,0,.09-.01.15-.04.18-.02.02-.04.08-.04.18-.05.05-.05.14,0,.28.05.14.07.24.07.28.05,1.75.07,3.49.07,5.22s.05,3.47.14,5.22c0,.38-.13.69-.39.92-.26.24-.58.31-.96.21-.24.05-.62.08-1.14.11-.52.02-1.06.04-1.63.04s-1.12-.01-1.67-.04c-.54-.02-.91-.04-1.1-.04s-.31-.02-.36-.07c-.09-.05-.17-.05-.21,0-.05.05-.12.07-.21.07-1.42,0-2.83-.01-4.22-.04-1.4-.02-2.8-.08-4.22-.18-.62-.05-1.24-.13-1.88-.25-.64-.12-.96-.49-.96-1.1,0-.52.02-1.46.07-2.8.05-1.35.11-2.89.18-4.62.07-1.73.14-3.57.21-5.54.07-1.96.14-3.81.21-5.54.07-1.73.13-3.27.18-4.61.05-1.35.07-2.28.07-2.8v-6.04c0-1.42-.01-2.91-.04-4.47-.02-1.56-.04-3.05-.04-4.47s-.01-2.67-.04-3.76c-.02-1.09-.04-1.85-.04-2.27,0-.14-.01-.4-.04-.78-.02-.38-.01-.64.04-.78.09-.33.29-.56.6-.67.31-.12.63-.11.96.04,1.28.05,2.57.08,3.87.11,1.3.02,2.59.04,3.87.04h7.88c.38-.14.73-.11,1.07.11.33.21.47.51.43.89,0,.47-.01,1.48-.04,3.02-.02,1.54-.05,3.19-.07,4.97-.02,1.78-.05,3.43-.07,4.97-.02,1.54-.04,2.54-.04,3.02.33,0,.95-.01,1.85-.04.9-.02,1.94-.04,3.12-.04s2.42-.01,3.73-.04c1.3-.02,2.54-.04,3.73-.04h4.97v-2.7c0-1.37-.01-2.84-.04-4.4-.02-1.56-.05-3.04-.07-4.44-.02-1.4-.04-2.31-.04-2.73,0-.09-.01-.34-.04-.75-.02-.4-.04-.65-.04-.75.09-.38.31-.62.64-.71.33-.09.66-.07.99.07,1.28,0,2.56.02,3.83.07,1.28.05,2.58.07,3.91.07h1.49c.76,0,1.56-.01,2.41-.04.85-.02,1.67-.04,2.45-.04h1.53c.38-.14.72-.11,1.03.11s.46.53.46.96c0,.38-.01,1.02-.04,1.92-.02.9-.04,1.94-.04,3.12s-.02,2.45-.07,3.8c-.05,1.35-.07,2.62-.07,3.8s-.01,2.24-.04,3.16c-.02.92-.04,1.57-.04,1.95-.09,3.22-.21,6.42-.35,9.59-.14,3.17-.19,6.37-.14,9.58,0,.19-.02.31-.07.35,0,.24.05.45.14.64,0,3.46.07,6.91.21,10.37,0,.38-.14.7-.43.96-.28.26-.62.34-.99.25Z"/><path d="M437.48,123.94c-.43.05-1.3.07-2.63.07s-2.73-.02-4.22-.07c-1.49-.05-2.89-.08-4.19-.11-1.3-.02-2.19-.04-2.66-.04-.19,0-.62-.01-1.28-.04-.66-.02-1.09-.04-1.28-.04-.38.09-.71.01-.99-.25-.28-.26-.4-.58-.36-.96.09-.61.15-1.22.18-1.81.02-.59.06-1.17.11-1.74.09-2.13.21-4.25.36-6.35.14-2.11.24-4.22.28-6.35.09-3.08.11-6.12.04-9.12-.07-3-.08-6.05-.04-9.12h-10.08c-.24.05-.5-.02-.78-.21-.38,0-.66-.11-.85-.32s-.32-.5-.39-.85c-.07-.35-.11-.73-.11-1.14v-1.17c-.09-1.7-.19-3.41-.28-5.11-.1-1.7-.17-3.43-.21-5.18,0-.43.18-.73.53-.92.35-.19.75-.28,1.17-.28,2.41.1,4.83.19,7.24.28,2.41.1,4.83.14,7.24.14,2.46-.05,4.92-.12,7.38-.21,2.46-.09,4.92-.17,7.38-.21,1.61-.05,3.21-.04,4.79.04,1.58.07,3.18.06,4.79-.04.28-.05.53.04.75.25s.32.49.32.82c.09.14.17.34.21.6.05.26.07.54.07.85s-.01.62-.04.92c-.02.31-.04.53-.04.67-.05,1.18-.11,2.36-.18,3.51-.07,1.16-.15,2.33-.25,3.51-.05.38-.07.79-.07,1.24s-.04.85-.11,1.21c-.07.36-.2.64-.39.85-.19.21-.47.32-.85.32-.24.24-.5.35-.78.35s-.82-.01-1.6-.04c-.78-.02-1.62-.04-2.52-.04s-1.74-.01-2.52-.04c-.78-.02-1.29-.04-1.53-.04-.19,3.93-.35,7.83-.5,11.71-.14,3.88-.09,7.79.14,11.71.09,1.8.18,3.61.25,5.43.07,1.82.15,3.66.25,5.5,0,.66-.28,1.06-.85,1.21-.14.28-.45.47-.92.57Z"/><path d="M16.87,53.74c-.69.05-1.73.14-3.11.26-1.38.12-2.83.21-4.33.26-1.51.05-2.95.06-4.33.04-1.38-.03-2.37-.16-2.96-.41-.35.1-.64.04-.89-.18-.25-.22-.39-.53-.44-.93,0-.44-.04-1.31-.11-2.59-.07-1.28-.15-2.64-.22-4.07s-.15-2.79-.22-4.07c-.07-1.28-.11-2.15-.11-2.59s.22-.79.67-1.04c.1-.25.25-.44.44-.59.2-.15.42-.2.67-.15.15,0,.28.03.41.07.12.05.23.07.33.07.2.05.57.07,1.11.07s1.11-.01,1.7-.04c.59-.02,1.16-.05,1.7-.07.54-.02.94-.04,1.18-.04.74-.1,1.48-.26,2.22-.48.74-.22,1.38-.6,1.92-1.15.79-.69,1.34-1.54,1.67-2.55.32-1.01.58-2.03.78-3.07.25-1.48.38-2.97.41-4.48.02-1.5.01-3.02-.04-4.55,0-.59.01-1.8.04-3.63.02-1.82.05-3.79.07-5.88.02-2.1.04-4.06.04-5.88v-3.63c0-.49.2-.86.59-1.11.1-.34.27-.62.52-.81.25-.2.54-.25.89-.15.15.05.43.09.85.11.42.03.86.04,1.33.04s.91-.01,1.33-.04c.42-.02.73-.04.92-.04,2.17-.1,4.32-.14,6.44-.11,2.12.03,4.27.06,6.44.11.3,0,.59.12.89.37s.47.52.52.81c.25,2.22.34,4.45.3,6.7-.05,2.25-.1,4.48-.15,6.7,0,.05-.01.12-.04.22-.03.1-.04.17-.04.22.05.1.07.3.07.59v9.21c0,3.03-.07,6.08-.22,9.14-.1,1.73-.27,3.42-.52,5.07-.25,1.65-.67,3.27-1.26,4.85-.54,1.28-1.26,2.48-2.15,3.59s-1.9,2.01-3.03,2.7c-1.83,1.09-3.8,1.83-5.92,2.22-2.12.39-4.24.69-6.36.89Z"/><path d="M75.7,54.7c-2.57.1-5.14.11-7.73.04-2.59-.07-5.17-.31-7.73-.7-1.97-.3-3.93-.89-5.88-1.78-1.95-.89-3.51-2.12-4.7-3.7-1.38-1.78-2.38-3.77-3-5.99-.62-2.22-1.05-4.44-1.29-6.66-.25-2.52-.36-5.03-.33-7.55.02-2.52.14-5.03.33-7.55.15-1.73.41-3.46.78-5.22.37-1.75.9-3.42,1.59-5,.64-1.48,1.49-2.82,2.55-4.03,1.06-1.21,2.26-2.26,3.59-3.14,1.33-.89,2.78-1.59,4.33-2.11,1.55-.52,3.15-.8,4.77-.85.3,0,.83-.01,1.59-.04.76-.02,1.58-.04,2.44-.04h2.44c.76,0,1.29.03,1.59.07,1.28.1,2.54.18,3.77.26,1.23.07,2.47.21,3.7.41,1.97.35,3.92.95,5.85,1.81,1.92.86,3.5,2.08,4.74,3.66,1.33,1.78,2.32,3.77,2.96,5.99.64,2.22,1.06,4.44,1.26,6.66.25,2.52.36,5.03.33,7.55-.03,2.52-.14,5.03-.33,7.55-.15,1.73-.41,3.47-.78,5.22-.37,1.75-.9,3.42-1.59,5-.64,1.48-1.49,2.83-2.55,4.03-1.06,1.21-2.26,2.26-3.59,3.14-1.33.89-2.78,1.59-4.33,2.11-1.55.52-3.15.8-4.77.85ZM67.05,37.98c.25,0,.5.01.78.04.27.03.53.06.78.11.3,0,.74-.02,1.33-.07.59-.05,1.21-.12,1.85-.22.64-.1,1.26-.21,1.85-.33.59-.12,1.01-.26,1.26-.41.49-.25.91-.68,1.26-1.29.34-.62.63-1.31.85-2.07.22-.76.39-1.54.52-2.33.12-.79.18-1.45.18-2,.05-.94.06-1.86.04-2.77-.03-.91-.09-1.84-.18-2.78-.05-.64-.1-1.27-.15-1.89-.05-.62-.15-1.22-.3-1.81-.1-.3-.21-.59-.33-.89-.12-.3-.31-.57-.55-.81-.2-.2-.43-.34-.7-.44-.27-.1-.53-.2-.78-.3-.4-.15-.81-.25-1.26-.3-.44-.05-.89-.1-1.33-.15-.1,0-.17.01-.22.04-.05.03-.12.04-.22.04-.3.05-.58.05-.85,0-.27-.05-.53-.07-.78-.07-.3,0-.74.03-1.33.07-.59.05-1.21.11-1.85.18-.64.07-1.25.17-1.81.3-.57.12-.98.26-1.22.41-.49.25-.91.68-1.26,1.29-.35.62-.63,1.31-.85,2.07-.22.77-.4,1.54-.52,2.33-.12.79-.21,1.46-.26,2-.05.94-.06,1.88-.04,2.81.02.94.09,1.88.19,2.81.05.59.1,1.2.15,1.81.05.62.17,1.22.37,1.81.1.3.2.59.3.89.1.3.27.57.52.81.2.2.43.36.7.48.27.12.53.23.78.33.99.25,1.85.37,2.59.37.1,0,.19-.01.26-.04.07-.02.16-.04.26-.04Z"/><path d="M141.56,53.52c-1.04.1-2.07.15-3.11.15s-2.1-.03-3.18-.07c-.25-.05-.75-.1-1.52-.15-.76-.05-1.27-.03-1.52.07-.15.05-.3.05-.44,0-.15-.05-.3-.05-.44,0-.3.1-.59.09-.89-.04s-.49-.33-.59-.63c-.15-.59-.55-1.57-1.22-2.92-.67-1.36-1.39-2.8-2.18-4.33-.79-1.53-1.55-2.96-2.29-4.29-.74-1.33-1.26-2.27-1.55-2.81.15,2.22.26,4.4.33,6.55.07,2.15.14,4.3.18,6.47,0,.49-.17.86-.52,1.11-.35.25-.74.25-1.18,0-2.86.05-5.71.15-8.55.3-2.84.15-5.69.2-8.55.15-.54,0-1.01-.18-1.41-.55-.4-.37-.47-.8-.22-1.29.1-.15.17-.48.22-1,.05-.52.1-.85.15-1,.54-5.38.69-10.75.44-16.13-.25-5.38-.49-10.75-.74-16.13-.1-2.42-.16-4.83-.18-7.25-.03-2.42-.19-4.81-.48-7.18,0-.44.12-.79.37-1.04.15-.69.64-1.08,1.48-1.18h2.22c1.08,0,2.26.01,3.51.04,1.26.03,2.43.06,3.52.11,1.08.05,1.82.07,2.22.07,2.07.05,4.14.09,6.22.11,2.07.03,4.14.09,6.22.19,2.07.05,4.14.25,6.22.59,2.07.35,4,1.01,5.77,2,1.43.79,2.71,1.81,3.85,3.07,1.13,1.26,2.02,2.65,2.66,4.18.05.15.15.38.3.7.15.32.28.67.41,1.04.12.37.22.73.3,1.07.07.35.09.62.04.81.15.25.25.54.3.89.05.35.1.67.15.96.25,1.92.27,3.91.07,5.96-.2,2.05-.71,3.93-1.55,5.66-.44.89-1.01,1.7-1.7,2.44-.69.74-1.46,1.41-2.29,2-.69.49-1.41.89-2.15,1.18s-1.53.57-2.37.81c.79,1.23,1.48,2.5,2.07,3.81.59,1.31,1.18,2.6,1.78,3.88.79,1.58,1.58,3.15,2.37,4.7.79,1.55,1.6,3.12,2.44,4.7.25.44.28.88.11,1.29-.17.42-.53.6-1.07.55-.15.05-.41.1-.78.15-.37.05-.77.08-1.18.11-.42.02-.83.05-1.22.07-.4.02-.67.04-.81.04ZM120.7,12.82c.25,1.88.44,3.74.59,5.59.15,1.85.27,3.71.37,5.59.44,0,1.05-.04,1.81-.11s1.54-.19,2.33-.33c.79-.15,1.53-.33,2.22-.55.69-.22,1.18-.51,1.48-.85.54-.64.8-1.59.78-2.85-.03-1.26-.21-2.28-.55-3.07-.25-.59-.64-1.1-1.18-1.52-.54-.42-1.14-.75-1.78-1-.99-.39-1.99-.64-3-.74-1.01-.1-2.04-.15-3.07-.15Z"/><path d="M174.49,53.59c-.25.05-.64.08-1.18.11-.54.02-1.11.04-1.7.04s-1.17-.01-1.74-.04c-.57-.03-.95-.04-1.15-.04s-.32-.03-.37-.07c-.1-.05-.17-.05-.22,0-.05.05-.12.07-.22.07-1.48,0-2.95-.01-4.4-.04-1.46-.03-2.92-.09-4.4-.19-.64-.05-1.29-.14-1.96-.26-.67-.12-1-.5-1-1.15,0-.54.02-1.52.07-2.92.05-1.41.11-3.01.19-4.81.07-1.8.15-3.72.22-5.77.07-2.05.15-3.97.22-5.77.07-1.8.13-3.4.18-4.81.05-1.41.07-2.38.07-2.92v-6.29c0-1.48-.01-3.03-.04-4.66-.03-1.63-.04-3.18-.04-4.66s-.01-2.79-.04-3.92c-.03-1.13-.04-1.92-.04-2.37,0-.15-.01-.42-.04-.81-.03-.39-.01-.67.04-.81.1-.34.31-.58.63-.7.32-.12.65-.11,1,.04,1.33.05,2.68.09,4.03.11,1.36.03,2.7.04,4.03.04h8.14c.15,0,.31-.02.48-.07.17-.05.33-.02.48.07,1.97-.15,3.95-.23,5.92-.26,1.97-.02,3.95.09,5.92.33,1.23.1,2.44.28,3.63.55,1.18.27,2.34.68,3.48,1.22,1.13.54,2.19,1.22,3.18,2.03.99.81,1.88,1.71,2.66,2.7.99,1.18,1.79,2.5,2.41,3.96.62,1.46,1.12,2.92,1.52,4.4.34,1.33.56,2.66.63,4,.07,1.33.07,2.68,0,4.03-.07,1.36-.18,2.71-.33,4.07-.15,1.36-.25,2.7-.3,4.03-.15,1.97-.22,3.95-.22,5.92s-.35,3.87-1.04,5.7c-.69,1.88-1.9,3.48-3.63,4.81-1.73,1.33-3.53,2.32-5.4,2.96-2.96.99-6.02,1.54-9.18,1.67-3.16.12-6.29.19-9.4.19-.4.3-.77.39-1.11.3ZM175.6,37.38c1.23,0,2.47-.01,3.7-.04,1.23-.02,2.44-.21,3.63-.55,1.13-.25,2.02-.76,2.66-1.55.49-.59.89-1.45,1.18-2.59.3-1.13.52-2.32.67-3.55.15-1.23.21-2.45.18-3.66-.03-1.21-.14-2.18-.33-2.92-.2-.84-.53-1.62-1-2.33-.47-.71-1.02-1.34-1.67-1.89-.49-.39-1.05-.68-1.67-.85-.62-.17-1.25-.31-1.89-.41-.84-.1-1.65-.15-2.44-.15s-1.6.03-2.44.07c-.05,3.4-.16,6.81-.33,10.21-.17,3.4-.26,6.81-.26,10.21Z"/><path d="M210.98,54.18c-.4.15-.75.06-1.07-.26s-.43-.7-.33-1.15c-.4-.3-.54-.64-.44-1.04,0-.1.07-.3.22-.59.15-.3.25-.49.3-.59.15-.34.41-1.08.78-2.22s.76-2.34,1.18-3.63c.42-1.28.81-2.49,1.18-3.63s.6-1.88.7-2.22c.74-2.12,1.5-4.19,2.29-6.22.79-2.02,1.6-4.07,2.44-6.14,1.23-3.11,2.52-6.18,3.85-9.21s2.74-6.03,4.22-8.99c.44-.89.9-1.78,1.37-2.66.47-.89.95-1.78,1.44-2.66-.05-.25-.03-.52.07-.81.1-.3.27-.49.52-.59.2-.1.54-.17,1.04-.22.49-.05,1.02-.1,1.59-.15.57-.05,1.08-.08,1.55-.11.47-.02.83-.04,1.07-.04,1.97-.05,3.92-.1,5.85-.15,1.92-.05,3.85-.07,5.77-.07.1,0,.23.04.41.11.17.07.28.11.33.11.39-.1.74.03,1.04.37.3.35.54.67.74.96.34.64.81,1.65,1.41,3.03.59,1.38,1.23,2.97,1.92,4.77.69,1.8,1.41,3.7,2.15,5.7.74,2,1.44,3.9,2.11,5.7s1.25,3.43,1.74,4.88c.49,1.46.86,2.5,1.11,3.14,1.08,3.36,2.08,6.71,3,10.06.91,3.36,1.81,6.73,2.7,10.14.05.2.15.57.3,1.11.15.54.27.89.37,1.04.3.35.38.72.26,1.11-.12.39-.41.64-.85.74-1.04.25-2.08.33-3.14.26-1.06-.07-2.13-.14-3.22-.18-.4,0-1.16-.01-2.29-.04-1.13-.03-2.37-.05-3.7-.07-1.33-.03-2.58-.04-3.74-.04h-2.26c-.15-.05-.33-.14-.56-.26-.22-.12-.38-.18-.48-.18-.74.1-1.16-.25-1.26-1.04,0-.2-.04-.57-.11-1.11-.07-.54-.16-1.12-.26-1.74-.1-.62-.2-1.18-.3-1.7-.1-.52-.17-.88-.22-1.07-1.28-.05-2.58-.1-3.88-.15-1.31-.05-2.6-.1-3.88-.15-.74-.05-1.49-.04-2.26.04-.77.07-1.52.16-2.26.26-.1.35-.16.69-.19,1.04-.03.35-.09.72-.18,1.11-.05.25-.1.57-.15.96-.05.39-.11.8-.18,1.22-.07.42-.16.81-.26,1.18s-.25.63-.44.78c-.05.3-.17.55-.37.78-.2.22-.44.33-.74.33-1.14,0-2.27-.03-3.4-.07-1.13-.05-2.27-.1-3.4-.15-1.09-.05-2.16-.05-3.22,0-1.06.05-2.11.07-3.14.07-.2,0-.52.01-.96.04-.44.02-.92.05-1.44.07-.52.02-1,.05-1.44.07-.44.02-.77.06-.96.11ZM233.62,36.72c2.96-.1,5.89-.1,8.81,0-.4-3.45-.79-6.91-1.18-10.36-.4-3.45-.86-6.91-1.41-10.36-1.04,3.45-2.11,6.88-3.22,10.29-1.11,3.4-2.11,6.88-3,10.43Z"/><path d="M317.61,53.89h-3.26c-.69,0-1.34-.01-1.96-.04-.62-.03-1.02-.04-1.22-.04-.3,0-.59-.1-.89-.3-.3.15-.61.16-.93.04-.32-.12-.62-.32-.89-.59-.27-.27-.54-.58-.81-.92-.27-.34-.51-.67-.7-.96-1.63-2.07-3.21-4.18-4.74-6.33-1.53-2.15-2.96-4.38-4.29-6.7-1.18-2.02-2.36-4.03-3.51-6.03-1.16-2-2.36-3.98-3.59-5.96-.05,2.37-.06,4.7-.04,6.99.02,2.29.08,4.62.18,6.99.1,2.07.21,4.14.33,6.22.12,2.07.18,4.17.18,6.29,0,.25-.1.48-.3.7s-.44.33-.74.33c-.1.05-.24.11-.41.18-.17.07-.31.11-.41.11-2.62-.1-5.19-.12-7.73-.07-2.54.05-5.12.05-7.73,0-.25,0-.52-.07-.81-.22-.3-.15-.49-.35-.59-.59-.1-.2-.1-.54,0-1.04.05-.54.11-1.48.19-2.81.07-1.33.15-2.86.22-4.59.07-1.73.16-3.55.26-5.48.1-1.92.19-3.75.26-5.48.07-1.73.14-3.26.19-4.59.05-1.33.07-2.29.07-2.89v-2.59c0-1.23.01-2.65.04-4.25.02-1.6.02-3.3,0-5.11-.03-1.8-.03-3.5,0-5.11.02-1.6.04-3.02.04-4.26v-2.59c0-.49.22-.86.67-1.11.2-.25.44-.41.74-.48s.57-.11.81-.11c3.11-.15,6.19-.16,9.25-.04,3.06.12,6.14.23,9.25.33.59.1.96.4,1.11.89.1.1.23.3.41.59.17.3.36.6.55.92.2.32.38.63.56.93.17.3.31.49.41.59,2.07,3.7,4.03,7.4,5.88,11.1,1.85,3.7,3.86,7.35,6.03,10.95-.05-4-.05-8,0-12.03.05-4.02-.05-8.03-.3-12.02v-.67c0-.2.05-.39.15-.59.1-.1.27-.22.52-.37.25-.15.44-.22.59-.22.1-.05.26-.06.48-.04.22.03.38.04.48.04.44,0,1.32-.01,2.63-.04,1.31-.02,2.7-.05,4.18-.07,1.48-.02,2.87-.05,4.18-.07,1.31-.02,2.16-.04,2.55-.04s.74.16,1.04.48c.3.32.44.68.44,1.07,0,.59-.01,1.6-.04,3.03-.03,1.43-.06,3.1-.11,5-.05,1.9-.11,3.9-.18,5.99-.07,2.1-.14,4.08-.18,5.96-.05,1.88-.11,3.54-.19,5s-.11,2.48-.11,3.07c-.15,3.65-.26,7.28-.33,10.88-.07,3.6-.14,7.25-.19,10.95-.05.4-.23.7-.55.93-.32.22-.68.26-1.07.11-.99.25-2,.41-3.03.48s-2.05.16-3.03.26Z"/></svg>