<?xml version="1.0" encoding="UTF-8"?><svg id="Layer_1" xmlns="http://www.w3.org/2000/svg" viewBox="0 0 450 125"><path d="M108.8,71.81c.1-17.34,7.97-32.78,20.73-36.81,2.07-.66,4.28-1.01,6.6-1.02,1.96-.01,3.8.3,5.49.89,0,0,0,0,0,0-.38-.45-.78-.89-1.2-1.29,0,0,0,0-.01-.01-.41-.4-.84-.77-1.28-1.12-.02-.02-.05-.04-.07-.06-.42-.33-.86-.64-1.32-.92-.06-.04-.13-.07-.19-.11-.42-.26-.86-.49-1.3-.71-.12-.06-.24-.1-.36-.16-.4-.18-.81-.35-1.24-.5-.2-.07-.4-.12-.6-.18-.36-.11-.73-.22-1.1-.3-.31-.07-.64-.11-.96-.16-.28-.04-.56-.1-.85-.13-.63-.06-1.27-.1-1.92-.1-2.32.01-4.53.37-6.6,1.02-1.61.51-3.14,1.2-4.59,2.06-5.74,3.42-10.24,9.45-13.01,16.86-.06.15-.11.3-.16.45-.11.3-.21.6-.32.91-.11.32-.21.63-.31.96-.03.11-.07.22-.1.33-1.43,4.71-2.2,9.89-2.23,15.25,0,.82.02,1.61.06,2.4.01.25.04.5.06.75.04.53.09,1.05.15,1.56.03.28.07.56.11.83.07.47.14.94.23,1.4.05.27.1.54.15.8.1.48.22.95.34,1.42.06.21.1.43.16.64.18.64.39,1.26.61,1.86.08.22.18.43.27.65.15.38.31.76.48,1.13.12.26.25.52.38.77.15.3.31.59.47.88.15.26.3.52.46.76.16.26.34.51.51.75.17.25.34.49.52.73.18.23.36.44.55.65.37.44.76.85,1.17,1.24.17.16.33.33.51.49.25.21.5.41.76.61.18.14.36.28.55.41.27.19.54.36.82.53.19.12.38.23.57.33.29.16.58.32.88.46.19.09.38.17.57.25.32.13.64.27.97.39-3.45-4.14-5.41-10.31-5.37-17.83Z"/><path d="M74.01,69.38c-.07-11.35,2.13-22.03,6.07-31.45l5.84-32.98L78.98,0l-5.93,33.51-7.14,40.36c-.14.78-.28,1.56-.43,2.32-.05.24-.1.48-.14.71-.1.52-.21,1.03-.31,1.54-.06.29-.12.56-.18.85-.1.45-.19.9-.3,1.34-.07.3-.14.6-.21.89-.1.41-.2.82-.3,1.23-.07.3-.15.6-.23.89-.1.39-.2.78-.3,1.16-.08.3-.16.59-.24.89-.1.37-.21.74-.31,1.11-.09.29-.17.58-.26.87-.11.36-.22.71-.33,1.06-.09.28-.18.56-.27.84-.11.34-.23.68-.34,1.02-.09.28-.19.55-.28.82-.12.33-.24.66-.36.99-.1.26-.19.53-.29.79-.12.33-.25.65-.38.96-.1.25-.2.5-.3.75-.13.32-.26.63-.4.94-.1.24-.2.48-.31.72-.14.31-.28.61-.42.92-.1.22-.21.45-.31.67-.15.31-.3.62-.46.93-.1.2-.2.4-.3.6-.17.34-.35.66-.53.99-.09.16-.17.32-.26.48-.26.47-.53.93-.8,1.39-.29.48-.58.95-.88,1.41-.29.45-.59.9-.89,1.33-.54.77-1.1,1.5-1.66,2.21-.04.05-.09.11-.13.17-.55.67-1.11,1.3-1.68,1.91-.07.08-.15.16-.22.24-.56.59-1.14,1.14-1.73,1.68-.09.08-.18.17-.27.25-.59.52-1.19,1.01-1.8,1.48-.1.08-.2.15-.3.23-.62.46-1.25.89-1.89,1.3-.1.06-.2.13-.3.19-.66.41-1.33.79-2.01,1.15-.09.05-.18.09-.27.14-.71.36-1.43.7-2.16,1-.06.03-.12.05-.18.07-.77.32-1.56.61-2.37.87-3.82,1.23-8.01,1.84-12.59,1.88-.06,0-.11,0-.16,0-.5,0-1.01-.01-1.52-.03,0,0,0,0,0,0-1.62-.04-3.22-.16-4.8-.35-.02,0-.04,0-.06,0-.76-.09-1.51-.2-2.25-.32-.06-.01-.12-.02-.19-.03-.7-.12-1.39-.25-2.08-.39-.13-.03-.25-.06-.37-.08-.62-.13-1.23-.27-1.84-.43-.22-.05-.42-.12-.64-.17-.51-.14-1.02-.27-1.52-.42-.35-.1-.68-.22-1.02-.33-.36-.12-.72-.23-1.07-.35-.69-.24-1.35-.49-2-.74,0,0-.01,0-.01,0,0,0,0,0,0,0-.19-.07-.37-.16-.55-.25-.12-.06-.24-.14-.36-.21-.05-.03-.1-.06-.15-.09-.15-.1-.3-.21-.44-.32,0,0-.02-.01-.02-.02-.15-.12-.3-.25-.44-.39h0c7.61,10.68,18.45,9.95,28.26,9.9,4.64-.03,8.88-.64,12.75-1.88,14.54-4.69,23.73-18.42,28.31-44.27l1.2-6.78c-.02-.88-.04-1.77-.03-2.66Z"/><path d="M181.88,55.17c0-.2,0-.39,0-.59.1-18.44-6.49-34.19-18.76-42.77l-6.93-4.85s.02.02.04.03c.08.06.17.12.25.18,1.61,1.13,3.13,2.42,4.56,3.84.05.04.09.09.14.13.28.28.55.58.83.87.3.32.6.64.89.97.08.1.17.19.25.29,4.02,4.65,7.06,10.33,9.05,16.76,0,.01,0,.03.01.04.05.16.09.33.14.49.8,2.63,1.4,5.35,1.81,8.11.23,1.52.42,3.08.55,4.65.03.33.06.66.08.98,0,.14.02.28.03.42.71,10.09-.43,19.86-3.07,28.83-4.51,15.68-13.48,28.58-25.06,36.7-8.76,6.24-19.01,9.71-29.94,9.36-.7,0-1.4-.01-2.1-.04-.25,0-.51-.02-.76-.03-.52-.03-1.05-.06-1.57-.11-.48-.04-.95-.09-1.41-.15-.21-.03-.43-.05-.64-.08-3.71-.48-7.16-1.4-10.34-2.71-.07-.03-.14-.06-.2-.09-1.28-.54-2.51-1.13-3.7-1.79-.27-.15-.54-.3-.8-.45-.26-.15-.51-.3-.76-.46-.37-.23-.73-.46-1.09-.7-.16-.1-.32-.21-.47-.31-.04-.03-.09-.06-.13-.08l6.93,4.85c6.49,4.54,14.55,7.06,23.98,7.01,23.73.43,44.27-16.15,53.3-40.86l4.91-28.44Z"/><path d="M225.06,32.55l6.57-.04c1.44,0,2.74.13,3.91.38,0,0,0,0,0,0-.17-.34-.37-.67-.58-.99-.02-.03-.04-.06-.07-.09-.2-.29-.41-.56-.64-.82-.03-.04-.06-.07-.09-.1-.23-.26-.48-.5-.75-.74-.03-.02-.05-.05-.08-.07-.3-.25-.61-.49-.94-.7,0,0,0,0,0,0-.09-.06-.17-.12-.27-.17-.29-.17-.6-.34-.92-.49-.03-.02-.07-.03-.11-.04,0,0,0,0,0,0-.25-.11-.51-.21-.78-.31-.16-.06-.33-.12-.49-.17-.13-.04-.27-.08-.4-.12-.11-.03-.22-.07-.34-.1-.14-.04-.29-.07-.44-.1-.25-.06-.51-.1-.77-.15-.16-.03-.31-.05-.47-.07,0,0,0,0,0,0-.43-.06-.88-.09-1.31-.13-.39-.02-.79-.03-1.2-.04-.05,0-.1,0-.15,0-.02,0-.03,0-.05,0l-5.2.03h-1.9c-.65.02-1.27.16-1.85.42-.19.09-.37.21-.56.32-.09.06-.19.1-.28.16-1.33.95-2.33,2.58-2.67,4.56l-3.31,19.4s0,.07,0,.11c-.09.58-.07,1.16.03,1.69.01.07.04.13.06.2.05.21.11.42.18.62,0,.02.02.03.02.05.21.5.49.94.84,1.29.09.09.2.16.3.24.09.07.18.16.28.22.04.03.09.04.14.06.39.21.81.34,1.27.34l3.85-.02,3.16-18.5c.61-3.56,3.11-6.1,6.01-6.12Z"/><path d="M269.67,40.3c.15-12.11-4.21-23.09-12.67-29.09,0,0-6.93-5.03-6.93-5.03.27.19.52.39.78.59.02.01.03.02.05.04,1.6,1.22,3.05,2.66,4.35,4.28.08.1.16.19.24.29.09.12.18.24.27.36,3.16,4.1,5.22,9.08,6.23,14.66.55,2.89.81,5.88.75,8.88,0,0,0,0,0,0,0,.01,0,.02,0,.03,0,1.17-.04,2.32-.1,3.45,0,.01,0,.02,0,.03-.06,1.09-.15,2.16-.26,3.22-.06.56-.14,1.1-.21,1.65-.06.48-.12.96-.19,1.43-1.64,10.39-5.88,18.7-12.38,24.62-.15.14-.29.28-.44.42-.37.33-.77.64-1.16.95-.34.27-.67.56-1.02.82-.18.13-.37.25-.55.38-1.29.93-2.64,1.8-4.08,2.56l8.04,34.37c.08.32.13.65.18.97.04.32.07.64.08.96,0,0,0,0,0,.01.16,4.44-2.67,8.4-6.42,8.42l-9.82.06c-4.06.02-7.99.05-8.72.05l6.94,5.03,18.54-.11c4.29-.02,7.37-5.19,6.16-10.35l-8.04-34.37c13.01-6.98,20.3-20.66,20.4-39.57Z"/><path d="M216.69,82.85c-.3-1.21-1.19-2.04-2.21-2.04l-6.48.04h-1.86c-.62.01-1.19.28-1.66.72-.02.02-.05.04-.07.06-.11.11-.2.23-.3.36-.01.01-.02.03-.03.04-.3.43-.52.96-.63,1.56l-3.98,23.18-1.15,6.71c-.04.23-.09.46-.14.68-.55,2.23-1.83,4.01-3.47,4.96-.16.09-.33.18-.5.26-.68.31-1.41.48-2.17.48l-15.43.09h0s0,0,0,0c-.2,0-.39-.01-.58-.04-.05,0-.1-.02-.16-.03-.14-.03-.27-.05-.41-.09-.05-.02-.1-.04-.15-.06-.13-.05-.26-.09-.39-.15-.04-.02-.08-.04-.12-.06-.13-.07-.26-.14-.39-.22-.03-.02-.06-.04-.09-.06-.14-.09-.27-.19-.4-.3-.02-.02-.04-.03-.05-.05-.14-.12-.27-.25-.39-.38,0,0-.02-.02-.03-.03-.13-.15-.26-.3-.38-.46,0,0,0,0,0-.01-.12-.17-.24-.35-.34-.53,0,0,0,0,0,0h0s3.18,5.64,3.18,5.64c.48.87,1.18,1.56,2.01,1.78.33.09.66.13,1,.13l20.06-.11c3.03-.02,5.64-2.67,6.28-6.38l5.13-29.88c.27-1.58,1.39-2.72,2.68-2.73l4.35-.02-.74-3.02Z"/><path d="M299.85,32.63c-.02.06-.05.12-.07.19-.06.15-.12.32-.17.49-.11.38-.21.79-.28,1.23,0,0,0,0,0,.01,0,0-.9,5.09-2.11,12.01l-6.6,37.55s0,0,0,0c-.04.25-.06.48-.08.72-.08,1.44.36,2.79,1.12,3.77.57.65,1.31,1.12,2.13,1.42.25.06.52.1.79.1.99.12,1.96.18,2.93.2l8.85-50.76c1.18-8.37,14.05-5.05,18.4-4.13,0,0,0,0,0,0-.59-.8-1.24-1.5-1.92-2.12-.07-.07-.15-.13-.22-.2-.17-.15-.34-.28-.52-.41-2.97-2.28-7.17-3.5-12.93-3.47-3.17-.14-7.69-.36-9.33,3.4Z"/><path d="M378.76,5.69c2.51,11.2,8.47,37.76,8.55,38.31,0,0,0,0,0,0h.44c.07-.16,1.64-3.03,3.92-7.16-2.31-10.21-5.43-23.98-6.68-29.56,0-.02,0-.03-.01-.05-.5-2.17-2.02-3.78-3.82-4.32l-6.12-1.84s0,.01,0,.01c1.78.63,3.21,2.33,3.72,4.59Z"/><path d="M355.91,24.49c-2.64-4.68-6.1-8.61-10.41-11.67l-6.64-4.73c3.22,2.55,5.94,5.62,8.17,9.09.14.21.26.42.39.64.36.59.71,1.18,1.05,1.79.18.32.35.64.52.96.36.69.71,1.4,1.04,2.12.19.42.37.85.55,1.28.23.55.46,1.11.68,1.67.14.38.28.76.42,1.14.26.73.5,1.47.73,2.22.05.17.11.33.16.5,5.57,18.83,1.91,43.04-8.66,61.35-.29.5-.58,1-.87,1.49-.07.11-.13.22-.2.33-1.3,2.14-2.7,4.16-4.17,6.04-.04.05-.07.09-.11.14-.38.48-.75.95-1.14,1.41-6.55,7.93-14.73,13.85-24.26,16.31-3.37,1.38-8.29,2.11-13.8,2.49-1.31.14-2.5.21-3.54.2-.07,0-.15,0-.22,0-2.14.09-4.33.14-6.53.16-3.47.09-7.63.15-11.87-.05-4.96-.06-9.43-.1-12.71.07-1.98.01-3.67-1.22-4.68-3.04,1.43,3,2.8,8.48,6.2,8.08,0,0,36.84-.2,36.84-.2,33.48,1.21,60.04-31.71,59.32-71.82,0-1.87-.06-3.69-.17-5.47l-6.11-22.48Z"/><path d="M447.58,2.24l-10.84-1.6h0s0,0,0,0c.16.05.32.11.47.18,0,0,.02,0,.03.01.15.07.29.15.42.24.01,0,.02.02.03.02.13.09.26.19.39.3,0,0,.02.02.03.02.13.11.24.23.36.36,0,0,0,0,0,0,.45.51.8,1.15,1.02,1.85,0,.03.02.06.03.09.04.12.06.24.09.37.02.08.04.16.05.24.02.11.03.22.05.33.01.1.03.2.03.3,0,.1.01.2.01.31,0,.11,0,.22,0,.33,0,.1,0,.19-.02.29,0,.12-.02.24-.04.36-.01.09-.03.18-.04.27-.02.13-.06.25-.09.38-.02.08-.04.17-.07.25-.04.14-.1.27-.15.41-.03.07-.05.14-.08.2-.09.2-.19.4-.31.59l-42.84,69.64-6.26,35.94c-.11.65-.29,1.26-.53,1.83-.31.76-.73,1.44-1.22,2.02-1.11,1.3-2.61,2.09-4.24,2.1l-15.99.09c-.2,0-.39-.01-.59-.04-.05,0-.1-.02-.15-.03-.14-.03-.28-.05-.41-.09-.05-.01-.1-.04-.14-.05-.14-.05-.27-.09-.4-.15-.04-.02-.07-.04-.11-.06-.14-.07-.28-.14-.41-.22-.03-.02-.05-.03-.08-.05-.14-.09-.28-.19-.41-.3-.01-.01-.03-.02-.04-.04-.14-.12-.28-.25-.41-.38,0,0-.01-.01-.02-.02-.14-.14-.27-.3-.39-.46,0,0,0,0,0,0-.13-.17-.24-.34-.35-.52,0,0,0,0,0,0h0s3.31,5.73,3.31,5.73c.44.76,1.08,1.34,1.83,1.56.38.11.76.17,1.15.16l20.69-.11c2.9-.02,5.39-2.49,5.99-5.95l6.26-35.94,45.55-72.72c1.75-2.42,1.93-6.97-1.17-8.05Z"/></svg>