<?xml version="1.0" encoding="UTF-8"?><svg id="Layer_1" xmlns="http://www.w3.org/2000/svg" viewBox="0 0 450 125"><path d="M9.57,122.63c-2.87,0-6.07.57-9.35,1.72,1.72-9.27,2.95-16.89,3.85-24.19,2.38-18.45,4.35-27.63.33-30.09,4.76-4.59,9.92-5.41,12.79-5.41,7.38,0,10.33,3.12,8.77,14.27-.9,6.23-2.21,13.12-3.2,20.17-.9,6.89-1.72,12.22-2.3,17.22,8.12-.16,15.99-3.36,15.42-12.96,8.61-3.85,13.69,1.15,13.69,7.3,0,8.36-6.23,14.27-17.06,14.27-9.68,0-17.71-2.3-22.96-2.3Z"/><path d="M55.08,110.33c0-14.43,9.59-29.6,25.34-29.6,6.72,0,9.59,2.54,14.43,2.54,2.05,0,4.18-.25,6.72-1.39-1.15,5.49-1.97,10.41-2.62,14.84-2.21,15.66-3.03,21.98.25,25.42-3.69,1.72-7.38,1.97-9.84,1.89-5.33-.08-8.28-2.13-8.2-7.46-4.35,6.4-9.76,7.79-13.53,7.79-3.28,0-12.55-.98-12.55-14.02ZM74.84,113.61c3.44,0,7.22-4.92,8.69-13.94l1.56-10.82c-10-2.79-13.69,11.64-13.69,19.27,0,4.02,1.39,5.49,3.44,5.49Z"/><path d="M105.75,122.54c3.53-19.6,5-35.18,5.25-40.67,2.46,1.15,5.25,1.39,7.3,1.39,6.48,0,10.99-2.54,17.71-2.54,5.17,0,8.28,1.56,10.09,4.18,4.84-3.2,9.43-4.18,13.45-4.18,13.86,0,14.27,9.68,12.46,22.71-1.31,8.86-2.13,15.17,1.31,16.97-3.12,3.36-7.63,3.94-10.09,3.94-6.48,0-8.94-3.44-7.79-11.56l1.31-9.68c1.31-9.43,1.56-13.37-3.36-13.37-1.15,0-2.95.33-5.25,1.97.33,3.44-.08,7.46-.74,11.89-.74,5.49-1.15,10.91-1.8,16.32-.33,2.87-5.33,4.1-8.86,4.1-2.54,0-5-.49-6.56-1.48,1.31-7.13,2.3-13.69,3.03-19.43,1.15-9.43,1.15-13.61-3.77-13.61-1.07,0-2.3.16-3.77.66-1.64,10.17-2.46,19.6-3.69,29.77-.33,2.87-5.33,4.1-9.68,4.1-2.54,0-5-.49-6.56-1.48Z"/><path d="M184.64,121.81c-2.05,0-4.18.25-6.72,1.39,1.07-5.49,1.97-10.41,2.54-14.84,3.61-25.42,5.17-40.51,2.05-43.46,3.69-1.72,7.3-1.97,9.76-1.89,6.4.08,9.43,3.03,8.53,8.69-.57,3.44-1.48,9.92-2.46,16.73,4.43-6.31,9.84-7.71,13.61-7.71,3.28,0,12.46.98,12.46,14.02,0,14.43-9.51,29.6-25.26,29.6-6.72,0-9.68-2.54-14.51-2.54ZM208.09,96.96c0-4.02-1.39-5.49-3.44-5.49-3.36,0-6.89,4.51-8.53,12.87l-1.64,11.89c9.76,2.71,13.61-11.15,13.61-19.27Z"/><path d="M228.83,122.54c3.53-19.6,5-35.18,5.25-40.67,2.46,1.15,6.72,2.13,9.68,2.13,5.41,0,9.51-3.28,16.07-3.28,7.54,0,9.92,3.94,9.92,7.95,0,5.49-3.53,10.99-10.17,10.99-1.8,0-3.94-.33-5.49-1.48,1.72-3.28,3.12-9.51-.57-9.51-1.48,0-3.44.74-4.92,2.62-1.56,9.59-2.38,19.11-3.53,28.62-.33,2.87-5.33,4.1-9.68,4.1-2.54,0-5-.49-6.56-1.48Z"/><path d="M272.46,106.06c0-12.71,9.27-25.34,26.49-25.34,12.05,0,16.56,6.15,16.56,11.89,0,10.66-13.45,15.09-25.99,14.27,1.31,3.85,4.76,6.15,11.4,6.15,3.61,0,8.12-.49,13.37-3.28-4.51,10.82-12.79,14.6-21.98,14.6-13.04,0-19.84-7.87-19.84-18.29ZM299.93,92.7c.41-2.95-.49-5.66-3.2-5.66-3.85,0-6.64,5.41-7.54,12.05l-.25,2.05c5.99-.08,10.25-3.28,10.99-8.45Z"/><path d="M320.43,106.06c0-12.79,9.43-25.34,26.65-25.34,11.4,0,16.73,4.26,16.73,10,0,5.33-4.43,11.15-11.4,11.15-2.13,0-4.76-.41-6.72-1.8,1.23-2.13,2.46-5.9,2.46-8.77,0-2.38-.82-4.26-3.2-4.26-5.66,0-8.04,9.92-8.04,14.92,0,8.12,5.82,10.82,12.22,10.82,4.67,0,9.68-1.39,13.12-3.28-4.43,10.82-12.79,14.84-21.98,14.84-13.04,0-19.84-7.87-19.84-18.29Z"/><path d="M395.05,112.79l1.72-12.46c.9-6.56-.66-8.86-3.2-8.86-3.53,0-5.82,4.92-7.54,14.1l-1.72,14.35c-.33,2.87-5.33,4.1-9.68,4.1-2.54,0-5-.49-6.56-1.48.9-4.92,2.46-14.92,4.43-28.54,1.56-11.07,3.12-26.16,0-29.11,3.69-1.72,7.3-1.97,9.76-1.89,6.4.08,9.02,3.03,8.12,8.69-.57,3.61-1.39,9.84-2.21,16.81,3.85-6.15,8.94-7.79,12.71-7.79s13.86.41,11.15,19.27c-1.72,12.3-2.54,18.61.9,20.42-3.12,3.36-7.63,3.94-10.09,3.94-6.4,0-8.94-3.44-7.79-11.56Z"/><path d="M423.33,109.01l1.07-7.46,1.07-8.86h-4.92c-1.64-.82.08-10.66,3.53-10.66h2.71l.08-.98c1.07-9.1,13.12-10.91,17.55-9.68-.66,3.03-1.23,5.9-1.97,10.66h6.4c1.64.82-.08,10.66-3.53,10.66h-4.43l-.57,4.26c-2.21,15.33-1.39,21.65,3.77,21.81-4.1,4.43-10.17,5.17-13.2,5.17-8.28,0-8.69-6.81-7.54-14.92Z"/><path d="M.49,46.98c0-6.31,3.53-13.45,11.4-13.45,3.53,0,6.4,1.15,8.36,3.44-2.95,5.41-5.33,14.84,2.05,14.84,5.58,0,6.89-6.56,8.94-20.91,2.46-17.55,2.71-22.63-1.31-25.09C34.68,1.22,39.85.4,42.72.4c7.71,0,10.17,3.2,8.86,13.45-.16,1.31-2.21,16.73-2.3,17.79-3.03,22.88-13.94,28.95-29.03,28.95C7.21,60.59.49,54.77.49,46.98Z"/><path d="M55.43,41.82c0-13.12,9.84-25.34,25.5-25.34,13.04,0,19.76,7.87,19.76,18.29,0,13.04-9.68,25.34-25.42,25.34-13.04,0-19.84-7.87-19.84-18.29ZM77.16,53.13c4.35,0,5.74-5.25,6.31-9.35.33-2.3.57-6.81.57-9.1,0-7.63-1.39-11.23-5-11.23-4.35,0-5.74,5.25-6.31,9.35-.41,2.21-.57,7.54-.57,9.43,0,7.38,1.48,10.91,5,10.91Z"/><path d="M106.43,58.3c3.53-19.6,5-35.18,5.25-40.67,2.46,1.15,6.72,2.13,9.68,2.13,5.41,0,9.51-3.28,16.07-3.28,7.54,0,9.92,3.94,9.92,7.95,0,5.49-3.53,10.99-10.17,10.99-1.8,0-3.94-.33-5.49-1.48,1.72-3.28,3.12-9.51-.57-9.51-1.48,0-3.44.74-4.92,2.62-1.56,9.59-2.38,19.11-3.53,28.62-.33,2.87-5.33,4.1-9.68,4.1-2.54,0-5-.49-6.56-1.48Z"/><path d="M149.57,46.08c0-14.43,9.59-29.6,25.34-29.6,2.13,0,3.85.25,5.33.57.74-9.1.49-14.68-1.23-16.4,3.69-1.72,7.3-1.97,9.76-1.89,6.4.08,9.43,3.03,8.53,8.69-.66,4.1-2.05,12.3-3.85,25.01-2.21,15.66-3.03,21.98.25,25.42-3.69,1.72-7.38,1.97-9.84,1.89-5.33-.08-8.28-2.13-8.2-7.46-4.35,6.4-9.76,7.79-13.53,7.79-3.28,0-12.55-.98-12.55-14.02ZM169.33,49.36c3.44,0,7.22-4.92,8.69-13.94l1.56-10.82c-10-2.79-13.69,11.64-13.69,19.27,0,4.02,1.39,5.49,3.44,5.49Z"/><path d="M200.9,46.08c0-14.43,9.59-29.6,25.34-29.6,6.72,0,9.59,2.54,14.43,2.54,2.05,0,4.18-.25,6.72-1.39-1.15,5.49-1.97,10.41-2.62,14.84-2.21,15.66-3.03,21.98.25,25.42-3.69,1.72-7.38,1.97-9.84,1.89-5.33-.08-8.28-2.13-8.2-7.46-4.35,6.4-9.76,7.79-13.53,7.79-3.28,0-12.55-.98-12.55-14.02ZM220.66,49.36c3.44,0,7.22-4.92,8.69-13.94l1.56-10.82c-10-2.79-13.69,11.64-13.69,19.27,0,4.02,1.39,5.49,3.44,5.49Z"/><path d="M279.37,48.54l1.31-9.68c1.48-10.66.49-15.58-8.36-12.96-1.64,10.17-2.46,19.6-3.69,29.77-.33,2.87-5.33,4.1-9.68,4.1-2.54,0-5-.49-6.56-1.48,1.15-6.23,2.05-12.14,2.79-17.38,1.56-11.15,2.3-19.52,2.46-23.29,2.46,1.15,5.25,1.39,7.3,1.39,6.48,0,10.99-2.54,17.71-2.54,13.86,0,15.09,9.68,13.28,22.71-1.31,8.86-2.13,15.17,1.31,16.97-3.12,3.36-7.63,3.94-10.09,3.94-6.4,0-8.94-3.44-7.79-11.56Z"/></svg>