<?xml version="1.0" encoding="UTF-8"?><svg id="Layer_1" xmlns="http://www.w3.org/2000/svg" viewBox="0 0 450 125"><path d="M46.49,115.87c0,1.06-.22,2.07-.65,3-.43.94-1.01,1.76-1.75,2.47-.74.71-1.58,1.28-2.55,1.71-.96.43-1.98.65-3.04.65H8.57c-1.06,0-2.08-.21-3.04-.65-.96-.43-1.81-1.01-2.55-1.75s-1.32-1.57-1.75-2.51c-.43-.94-.65-1.94-.65-3v-43.93c0-1.11.21-2.14.65-3.08.43-.94,1-1.73,1.71-2.39.71-.66,1.52-1.18,2.43-1.56s1.85-.57,2.81-.57h.61c.96,0,1.91.19,2.85.57s1.75.9,2.43,1.56c.68.66,1.24,1.46,1.67,2.39.43.94.65,1.96.65,3.08v36.1h22.12c1.06,0,2.08.22,3.04.65.96.43,1.81,1.01,2.55,1.75.73.74,1.32,1.57,1.75,2.51.43.94.65,1.94.65,3Z"/><path d="M92.78,119.6c-.41.91-.95,1.72-1.63,2.43-.68.71-1.48,1.27-2.39,1.67-.91.41-1.9.61-2.96.61h-.3c-1.22,0-2.34-.28-3.38-.84-1.04-.56-1.91-1.27-2.62-2.13-1.88.91-3.95,1.7-6.23,2.36-2.28.66-4.69.99-7.22.99s-4.67-.41-6.73-1.22-3.83-1.91-5.32-3.28c-1.5-1.37-2.65-2.93-3.46-4.69-.81-1.75-1.22-3.59-1.22-5.52,0-3.35.7-5.95,2.09-7.77,1.39-1.83,3.14-3.17,5.24-4.04,2.1-.86,4.39-1.37,6.88-1.52,2.48-.15,4.84-.23,7.07-.23h7.83c0-.35-.04-.72-.11-1.11-.08-.4-.32-.76-.72-1.08-.41-.32-1.04-.58-1.9-.78-.86-.2-2.05-.3-3.57-.3-1.27,0-2.45.16-3.53.48-1.09.32-2.13.67-3.12,1.04-.99.37-1.95.72-2.89,1.04-.94.32-1.89.48-2.85.48-1.06,0-2.07-.1-3-.3-.94-.2-1.77-.55-2.51-1.06-.74-.5-1.32-1.15-1.75-1.93-.43-.78-.65-1.75-.65-2.91,0-1.31.37-2.48,1.1-3.52.73-1.03,1.7-1.94,2.89-2.72,1.19-.78,2.53-1.44,4.03-1.97,1.49-.53,3-.96,4.52-1.29,1.52-.33,2.95-.57,4.29-.72,1.34-.15,2.5-.23,3.46-.23,3.14,0,6.02.36,8.63,1.06,2.61.71,4.85,1.89,6.73,3.53,1.87,1.65,3.33,3.8,4.37,6.46,1.04,2.66,1.56,5.97,1.56,9.92v16.19c0,1.01-.2,1.98-.61,2.89ZM68.23,107.74c-.96,0-1.72.06-2.28.19-.56.13-.99.3-1.29.53-.3.23-.51.47-.61.72-.1.25-.15.53-.15.84s.05.6.15.87c.1.28.3.53.61.76.3.23.73.42,1.29.57.56.15,1.32.23,2.28.23s2-.11,3.12-.34c1.11-.23,2.17-.54,3.15-.95.99-.41,1.9-.91,2.74-1.52.84-.61,1.48-1.27,1.94-1.98l-10.94.08Z"/><path d="M164.52,122.18c-1.47,1.42-3.24,2.13-5.32,2.13h-.46c-2.08,0-3.84-.72-5.28-2.17-1.44-1.44-2.17-3.25-2.17-5.43v-18.09c0-.71-.2-1.44-.61-2.2s-1.34-1.14-2.81-1.14c-1.32,0-2.43.37-3.34,1.1-.91.74-1.37,1.66-1.37,2.77v17.56c0,2.23-.74,4.05-2.2,5.47-1.47,1.42-3.27,2.13-5.4,2.13h-.38c-1.06,0-2.05-.19-2.96-.57s-1.71-.91-2.39-1.6-1.23-1.49-1.63-2.43c-.41-.94-.61-1.94-.61-3v-18.62c0-.66-.25-1.32-.76-1.98-.51-.66-1.57-.99-3.19-.99-1.32,0-2.45.41-3.38,1.22-.94.81-1.41,1.77-1.41,2.89v17.48c0,1.06-.2,2.07-.61,3-.41.94-.95,1.75-1.63,2.43s-1.48,1.22-2.39,1.6-1.85.57-2.81.57h-.46c-1.06,0-2.05-.19-2.96-.57s-1.71-.91-2.39-1.6-1.22-1.49-1.6-2.43c-.38-.94-.57-1.94-.57-3v-29.03c0-1.06.19-2.05.57-2.96.38-.91.91-1.71,1.6-2.39.68-.68,1.48-1.22,2.39-1.6.91-.38,1.9-.57,2.96-.57h.46c1.22,0,2.33.3,3.34.91,1.01.61,1.67,1.24,1.98,1.9.35-.35.87-.72,1.56-1.1.68-.38,1.43-.72,2.24-1.03.81-.3,1.63-.56,2.47-.76.84-.2,1.58-.3,2.24-.3,1.67,0,3.09.11,4.26.34,1.16.23,2.18.52,3.04.87.86.35,1.61.77,2.24,1.25.63.48,1.28.98,1.94,1.48,1.47-1.01,3.19-1.93,5.17-2.74,1.98-.81,3.8-1.22,5.47-1.22,4,0,7.27.48,9.8,1.44,2.53.96,4.51,2.29,5.93,3.99,1.42,1.7,2.38,3.7,2.89,6,.51,2.31.76,4.78.76,7.41v18.09c0,2.23-.73,4.05-2.2,5.47Z"/><path d="M222.51,102.19c0,2.99-.48,5.84-1.44,8.55-.96,2.71-2.43,5.09-4.41,7.14-1.98,2.05-4.47,3.7-7.49,4.94-3.01,1.24-6.57,1.86-10.68,1.86-2.08,0-3.8-.33-5.17-.99s-2.71-1.42-4.03-2.28c-.56.61-1.25,1.24-2.09,1.9s-1.91.99-3.23.99h-.46c-1.06,0-2.05-.19-2.96-.57s-1.71-.91-2.39-1.6-1.22-1.49-1.6-2.43c-.38-.94-.57-1.94-.57-3v-46.66c0-1.06.19-2.05.57-2.96.38-.91.91-1.71,1.6-2.39.68-.68,1.48-1.22,2.39-1.6s1.9-.57,2.96-.57h.38c1.06,0,2.05.2,2.96.61.91.41,1.71.95,2.39,1.63s1.23,1.48,1.63,2.39.61,1.88.61,2.89v11.48c1.06-.41,2.09-.82,3.08-1.25s2.29-.65,3.91-.65c4.1,0,7.66.62,10.68,1.86,3.01,1.24,5.51,2.9,7.49,4.98,1.98,2.08,3.44,4.47,4.41,7.18.96,2.71,1.44,5.56,1.44,8.55ZM206.77,102.19c0-1.98-.67-3.7-2.01-5.17-1.34-1.47-3.43-2.2-6.27-2.2-1.77,0-3.29.37-4.56,1.1-1.27.74-2.23,1.69-2.89,2.85-.2.35-.34.82-.42,1.41-.08.58-.11,1.23-.11,1.94,0,.81.04,1.52.11,2.13s.16.96.27,1.06c.71,1.22,1.74,2.22,3.08,3,1.34.79,2.85,1.18,4.52,1.18,2.89,0,4.99-.73,6.31-2.2,1.32-1.47,1.98-3.17,1.98-5.09Z"/><path d="M259.48,92.16c-.79,1.01-1.66,1.77-2.62,2.28-1.12.56-2.36.89-3.72.99-1.22,0-2.28.13-3.19.38-.91.25-1.67.57-2.28.95-.61.38-1.08.79-1.41,1.22-.33.43-.49.82-.49,1.18v17.56c0,1.06-.2,2.07-.61,3-.41.94-.96,1.75-1.67,2.43-.71.68-1.52,1.22-2.43,1.6s-1.85.57-2.81.57h-.46c-2.13,0-3.91-.72-5.36-2.17-1.44-1.44-2.17-3.25-2.17-5.43v-29.11c0-2.13.72-3.91,2.17-5.36s3.23-2.17,5.36-2.17h.38c1.22,0,2.27.32,3.15.95.89.63,1.48,1.3,1.79,2.01.35-.35.82-.72,1.41-1.1.58-.38,1.23-.73,1.94-1.06.71-.33,1.47-.59,2.28-.8.81-.2,1.65-.3,2.51-.3h1.18c.48,0,.85.03,1.1.08,2.03.15,3.72.92,5.09,2.32,1.37,1.39,2.05,3.13,2.05,5.21v.46c0,1.88-.39,3.32-1.18,4.33Z"/><path d="M307.55,114.13c0,1.37-.41,2.58-1.22,3.65-.81,1.06-1.86,1.99-3.15,2.77-1.29.79-2.74,1.44-4.33,1.98-1.6.53-3.19.96-4.79,1.29-1.6.33-3.1.57-4.52.72-1.42.15-2.58.23-3.5.23-3.29,0-6.38-.48-9.27-1.44-2.89-.96-5.4-2.38-7.52-4.26-2.13-1.87-3.81-4.22-5.05-7.03-1.24-2.81-1.86-6.04-1.86-9.69s.62-6.89,1.86-9.73c1.24-2.84,2.93-5.21,5.05-7.11,2.13-1.9,4.64-3.34,7.52-4.33,2.89-.99,5.98-1.48,9.27-1.48s6.18.42,8.82,1.25c2.63.84,4.89,2.05,6.76,3.65,1.87,1.6,3.33,3.56,4.37,5.89,1.04,2.33,1.56,5.02,1.56,8.06,0,1.67-.28,3.03-.84,4.07-.56,1.04-1.33,1.84-2.32,2.39-.99.56-2.15.94-3.5,1.14-1.34.2-2.77.3-4.29.3h-18.24c.3.56.62,1.12.95,1.67.33.56.77,1.05,1.33,1.48.56.43,1.27.79,2.13,1.06.86.28,1.98.42,3.34.42,1.92,0,3.85-.32,5.78-.95,1.93-.63,3.47-1.28,4.64-1.94.46-.25,1.04-.51,1.75-.76.71-.25,1.34-.38,1.9-.38,2.03,0,3.76.65,5.21,1.94,1.44,1.29,2.17,3,2.17,5.13ZM292.62,94.1c-.53-.48-1.15-.87-1.86-1.18-.71-.3-1.47-.54-2.28-.72-.81-.18-1.47-.27-1.98-.27-.71,0-1.5.08-2.36.23s-1.68.38-2.47.68c-.79.3-1.5.7-2.13,1.18-.63.48-1.1,1.05-1.41,1.71h15.28c0-.61-.27-1.15-.8-1.63Z"/><path d="M358.55,113.06c0,1.37-.41,2.62-1.22,3.76s-1.86,2.14-3.15,3c-1.29.86-2.75,1.6-4.37,2.2-1.62.61-3.23,1.12-4.83,1.52-1.6.41-3.1.7-4.52.87-1.42.18-2.58.27-3.5.27-3.29,0-6.4-.48-9.31-1.44-2.91-.96-5.45-2.39-7.6-4.29-2.15-1.9-3.85-4.26-5.09-7.07-1.24-2.81-1.86-6.04-1.86-9.69s.63-7.04,1.9-9.88c1.27-2.84,2.99-5.19,5.17-7.07,2.18-1.87,4.71-3.28,7.6-4.22s5.95-1.41,9.2-1.41c1.06,0,2.32.11,3.76.34,1.44.23,2.95.57,4.52,1.03s3.1,1.01,4.6,1.67c1.49.66,2.85,1.43,4.07,2.32,1.22.89,2.19,1.88,2.93,2.96.73,1.09,1.1,2.27,1.1,3.53,0,2.28-.76,4.1-2.28,5.47-1.52,1.37-3.37,2.05-5.55,2.05-.76,0-1.44-.09-2.05-.27-.61-.18-1.19-.42-1.75-.72-1.12-.61-2.46-1.29-4.03-2.05s-3.27-1.14-5.09-1.14c-1.52,0-2.81.23-3.88.68-1.06.46-1.91,1.05-2.55,1.79-.63.74-1.1,1.55-1.41,2.43-.3.89-.46,1.76-.46,2.62,0,.81.14,1.63.42,2.47s.75,1.61,1.41,2.32c.66.71,1.49,1.29,2.51,1.75s2.28.68,3.8.68c1.87,0,3.71-.32,5.51-.95,1.8-.63,3.23-1.28,4.29-1.94.46-.25,1.05-.52,1.79-.8.73-.28,1.43-.42,2.09-.42,1.06,0,2.06.19,3,.57.94.38,1.77.9,2.51,1.56.73.66,1.3,1.46,1.71,2.39.41.94.61,1.96.61,3.08Z"/><path d="M404.68,122.18c-1.47,1.42-3.27,2.13-5.4,2.13h-.38c-2.18,0-3.99-.72-5.43-2.17-1.44-1.44-2.17-3.25-2.17-5.43v-17.48c0-.91-.37-1.7-1.1-2.36-.74-.66-2.12-.99-4.14-.99-.66,0-1.3.13-1.94.38-.63.25-1.19.57-1.67.95-.48.38-.87.8-1.18,1.25-.3.46-.46.91-.46,1.37v16.87c0,1.06-.2,2.07-.61,3-.41.94-.96,1.75-1.67,2.43-.71.68-1.52,1.22-2.43,1.6-.91.38-1.88.57-2.89.57h-.46c-1.06,0-2.05-.19-2.96-.57s-1.71-.91-2.39-1.6-1.23-1.49-1.63-2.43c-.41-.94-.61-1.94-.61-3v-46.66c0-1.06.2-2.05.61-2.96s.95-1.71,1.63-2.39c.68-.68,1.48-1.22,2.39-1.6s1.9-.57,2.96-.57h.3c1.06,0,2.06.2,3,.61.94.41,1.75.95,2.43,1.63.68.68,1.22,1.48,1.6,2.39s.57,1.88.57,2.89v11.93c.81-.35,1.56-.71,2.24-1.06.68-.35,1.76-.53,3.23-.53,3.75,0,6.94.48,9.58,1.44,2.63.96,4.78,2.29,6.42,3.99,1.65,1.7,2.85,3.7,3.61,6,.76,2.31,1.14,4.78,1.14,7.41v17.48c0,2.23-.73,4.05-2.2,5.47Z"/><path d="M448.11,92.43c-.38.89-.91,1.66-1.6,2.32-.68.66-1.48,1.19-2.39,1.6-.91.41-1.88.61-2.89.61h-5.09v4.48c0,1.77.19,3.21.57,4.29.38,1.09.8,1.96,1.25,2.62.56.76,1.19,1.34,1.9,1.75l-.38-.15c1.32.76,2.34,1.7,3.08,2.81.73,1.12,1.1,2.46,1.1,4.03,0,1.27-.25,2.37-.76,3.31-.51.94-1.15,1.72-1.94,2.36-.79.63-1.68,1.1-2.7,1.41-1.01.3-2,.46-2.96.46-1.22,0-2.69-.47-4.41-1.41-1.72-.94-3.36-2.36-4.9-4.26-1.55-1.9-2.88-4.31-3.99-7.22-1.11-2.91-1.67-6.35-1.67-10.3v-4.18h-3.5c-1.01,0-1.96-.2-2.85-.61-.89-.4-1.69-.94-2.39-1.6-.71-.66-1.27-1.43-1.67-2.32-.41-.89-.61-1.84-.61-2.85v-.46c0-1.06.2-2.04.61-2.93.41-.89.96-1.66,1.67-2.32.71-.66,1.51-1.18,2.39-1.56.89-.38,1.84-.57,2.85-.57h3.5v-7.75c0-1.11.21-2.14.65-3.08.43-.94,1-1.75,1.71-2.43.71-.68,1.52-1.2,2.43-1.56.91-.35,1.85-.53,2.81-.53h.68c.96,0,1.89.18,2.77.53.89.36,1.68.87,2.39,1.56.71.68,1.28,1.5,1.71,2.43.43.94.65,1.96.65,3.08v7.75h5.09c2.08,0,3.84.7,5.28,2.09,1.44,1.39,2.17,3.15,2.17,5.28v.46c0,1.01-.19,1.96-.57,2.85Z"/><path d="M48.09,47.34c-1.29,3.14-3.07,5.71-5.32,7.71-2.25,2-4.93,3.48-8.02,4.45-3.09.96-6.44,1.44-10.03,1.44s-6.8-.38-9.46-1.14c-2.66-.76-4.9-1.75-6.73-2.96s-3.32-2.61-4.48-4.18c-1.17-1.57-2.08-3.17-2.74-4.79l.08.08c-.25-.56-.46-1.13-.61-1.71-.15-.58-.23-1.2-.23-1.86,0-1.01.2-2,.61-2.96.41-.96.96-1.81,1.67-2.55.71-.73,1.54-1.32,2.51-1.75.96-.43,2-.65,3.12-.65,1.52,0,2.81.39,3.88,1.18,1.06.79,2.13,1.86,3.19,3.23.3.36.7.79,1.18,1.29.48.51,1.09.99,1.82,1.44.73.46,1.57.84,2.51,1.14s2.01.46,3.23.46c3.19,0,5.65-.72,7.37-2.17,1.72-1.44,2.58-3.76,2.58-6.95v-19.76h-6.16c-1.06,0-2.07-.21-3-.65-.94-.43-1.77-1.01-2.51-1.75-.74-.73-1.32-1.58-1.75-2.55-.43-.96-.65-1.98-.65-3.04s.21-2,.65-2.96c.43-.96,1.01-1.81,1.75-2.55s1.57-1.32,2.51-1.75c.94-.43,1.94-.65,3-.65h14.36c2.28,0,4.12.7,5.51,2.09,1.39,1.39,2.09,3.23,2.09,5.51v28.04c0,4.36-.65,8.11-1.94,11.25Z"/><path d="M106.2,38.44c0,2.99-.49,5.84-1.48,8.55-.99,2.71-2.47,5.09-4.45,7.14-1.98,2.05-4.47,3.7-7.49,4.94s-6.57,1.86-10.68,1.86-7.66-.62-10.68-1.86c-3.02-1.24-5.51-2.89-7.49-4.94-1.98-2.05-3.46-4.43-4.45-7.14-.99-2.71-1.48-5.56-1.48-8.55s.48-5.78,1.44-8.51c.96-2.74,2.44-5.14,4.45-7.22,2-2.08,4.51-3.74,7.52-4.98,3.01-1.24,6.57-1.86,10.68-1.86s7.68.62,10.72,1.86c3.04,1.24,5.55,2.9,7.52,4.98,1.98,2.08,3.45,4.47,4.41,7.18.96,2.71,1.44,5.56,1.44,8.55ZM90.39,38.44c0-1.98-.67-3.7-2.01-5.17-1.34-1.47-3.43-2.2-6.27-2.2s-4.93.74-6.27,2.2c-1.34,1.47-2.01,3.19-2.01,5.17s.67,3.62,2.01,5.09c1.34,1.47,3.43,2.2,6.27,2.2s4.93-.73,6.27-2.2c1.34-1.47,2.01-3.17,2.01-5.09Z"/><path d="M143.02,28.41c-.79,1.01-1.66,1.77-2.62,2.28-1.12.56-2.36.89-3.72.99-1.22,0-2.28.13-3.19.38-.91.25-1.67.57-2.28.95-.61.38-1.08.79-1.41,1.22-.33.43-.49.82-.49,1.18v17.56c0,1.06-.2,2.07-.61,3-.41.94-.96,1.75-1.67,2.43-.71.68-1.52,1.22-2.43,1.6s-1.85.57-2.81.57h-.46c-2.13,0-3.91-.72-5.36-2.17-1.44-1.44-2.17-3.25-2.17-5.43v-29.11c0-2.13.72-3.91,2.17-5.36s3.23-2.17,5.36-2.17h.38c1.22,0,2.27.32,3.15.95.89.63,1.48,1.3,1.79,2.01.35-.35.82-.72,1.41-1.1.58-.38,1.23-.73,1.94-1.06.71-.33,1.47-.59,2.28-.8.81-.2,1.65-.3,2.51-.3h1.18c.48,0,.85.03,1.1.08,2.03.15,3.72.92,5.09,2.32,1.37,1.39,2.05,3.13,2.05,5.21v.46c0,1.88-.39,3.32-1.18,4.33Z"/><path d="M191.66,55.96c-.38.94-.91,1.75-1.6,2.43s-1.48,1.22-2.39,1.6-1.9.57-2.96.57h-.46c-1.32,0-2.39-.33-3.23-.99s-1.53-1.29-2.09-1.9c-1.32.86-2.66,1.62-4.03,2.28-1.37.66-3.09.99-5.17.99-4.1,0-7.66-.62-10.68-1.86-3.01-1.24-5.51-2.89-7.49-4.94-1.98-2.05-3.45-4.43-4.41-7.14-.96-2.71-1.44-5.56-1.44-8.55s.48-5.84,1.44-8.55c.96-2.71,2.43-5.1,4.41-7.18,1.98-2.08,4.47-3.74,7.49-4.98,3.01-1.24,6.57-1.86,10.68-1.86,1.62,0,2.93.22,3.91.65.99.43,2.01.85,3.08,1.25V6.3c0-1.01.2-1.98.61-2.89.4-.91.95-1.71,1.63-2.39.68-.68,1.48-1.23,2.39-1.63.91-.4,1.9-.61,2.96-.61h.38c1.06,0,2.05.19,2.96.57s1.71.91,2.39,1.6c.68.68,1.22,1.48,1.6,2.39.38.91.57,1.9.57,2.96v46.66c0,1.06-.19,2.07-.57,3ZM177.71,38.37c0-.71-.04-1.35-.11-1.94-.08-.58-.22-1.05-.42-1.41-.66-1.17-1.62-2.12-2.89-2.85-1.27-.73-2.79-1.1-4.56-1.1-2.84,0-4.93.74-6.27,2.2-1.34,1.47-2.01,3.19-2.01,5.17s.66,3.62,1.98,5.09c1.32,1.47,3.42,2.2,6.31,2.2,1.67,0,3.18-.39,4.52-1.18,1.34-.79,2.37-1.79,3.08-3,.1-.1.19-.46.27-1.06s.11-1.32.11-2.13Z"/><path d="M243.3,55.85c-.41.91-.95,1.72-1.63,2.43-.68.71-1.48,1.27-2.39,1.67-.91.41-1.9.61-2.96.61h-.3c-1.22,0-2.34-.28-3.38-.84-1.04-.56-1.91-1.27-2.62-2.13-1.88.91-3.95,1.7-6.23,2.36-2.28.66-4.69.99-7.22.99s-4.67-.41-6.73-1.22-3.83-1.91-5.32-3.28c-1.5-1.37-2.65-2.93-3.46-4.69-.81-1.75-1.22-3.59-1.22-5.52,0-3.35.7-5.95,2.09-7.77,1.39-1.83,3.14-3.17,5.24-4.04,2.1-.86,4.39-1.37,6.88-1.52,2.48-.15,4.84-.23,7.07-.23h7.83c0-.35-.04-.72-.11-1.11-.08-.4-.32-.76-.72-1.08-.41-.32-1.04-.58-1.9-.78-.86-.2-2.05-.3-3.57-.3-1.27,0-2.45.16-3.53.48-1.09.32-2.13.67-3.12,1.04-.99.37-1.95.72-2.89,1.04-.94.32-1.89.48-2.85.48-1.06,0-2.07-.1-3-.3-.94-.2-1.77-.55-2.51-1.06-.74-.5-1.32-1.15-1.75-1.93-.43-.78-.65-1.75-.65-2.91,0-1.31.37-2.48,1.1-3.52.73-1.03,1.7-1.94,2.89-2.72,1.19-.78,2.53-1.44,4.03-1.97,1.49-.53,3-.96,4.52-1.29,1.52-.33,2.95-.57,4.29-.72,1.34-.15,2.5-.23,3.46-.23,3.14,0,6.02.36,8.63,1.06,2.61.71,4.85,1.89,6.73,3.53,1.87,1.65,3.33,3.8,4.37,6.46,1.04,2.66,1.56,5.97,1.56,9.92v16.19c0,1.01-.2,1.98-.61,2.89ZM218.75,43.99c-.96,0-1.72.06-2.28.19-.56.13-.99.3-1.29.53-.3.23-.51.47-.61.72-.1.25-.15.53-.15.84s.05.6.15.87c.1.28.3.53.61.76.3.23.73.42,1.29.57.56.15,1.32.23,2.28.23s2-.11,3.12-.34c1.11-.23,2.17-.54,3.15-.95.99-.41,1.9-.91,2.74-1.52.84-.61,1.48-1.27,1.94-1.98l-10.94.08Z"/><path d="M293.31,58.43c-1.47,1.42-3.27,2.13-5.4,2.13h-.38c-2.18,0-3.99-.72-5.43-2.17-1.44-1.44-2.17-3.25-2.17-5.43v-18.09c0-.71-.37-1.44-1.1-2.2-.74-.76-2.12-1.14-4.14-1.14-1.32,0-2.52.38-3.61,1.14-1.09.76-1.63,1.7-1.63,2.81v17.48c0,1.06-.2,2.07-.61,3-.41.94-.96,1.75-1.67,2.43-.71.68-1.52,1.22-2.43,1.6-.91.38-1.88.57-2.89.57h-.46c-1.06,0-2.05-.19-2.96-.57s-1.71-.91-2.39-1.6-1.23-1.49-1.63-2.43c-.41-.94-.61-1.94-.61-3v-29.03c0-1.06.2-2.06.61-3,.41-.94.95-1.75,1.63-2.43.68-.68,1.48-1.22,2.39-1.6s1.9-.57,2.96-.57h.46c1.47,0,2.63.3,3.5.91.86.61,1.47,1.24,1.82,1.9.71-.71,1.86-1.41,3.46-2.09,1.6-.68,3.51-1.03,5.74-1.03,3.75,0,6.85.48,9.31,1.44,2.46.96,4.42,2.29,5.89,3.99,1.47,1.7,2.5,3.7,3.08,6,.58,2.31.87,4.78.87,7.41v18.09c0,2.23-.73,4.05-2.2,5.47Z"/></svg>