<?xml version="1.0" encoding="UTF-8"?><svg id="Layer_1" xmlns="http://www.w3.org/2000/svg" viewBox="0 0 450 125"><path d="M.71,110.67l6.98-32.65c1.43-6.41,4.29-9.37,10.1-9.37h3.03c5.64,0,8.92,3.12,7.57,9.53l-5.97,27.67h12.62c5.55,0,8.58,2.7,8.58,6.5,0,1.86-.84,6.58-3.2,8.94-1.51,1.52-3.28,2.36-8.08,2.36H10.73c-8.16,0-11.95-3.96-10.01-12.99Z"/><path d="M46.58,108.06c0-14.17,9-27.84,22.38-27.84,4.97,0,10.18,2.28,12.54,7.34,1.35-2.36,3.03-3.97,5.13-5.06,2.1-1.1,4.63-1.6,7.66-1.6,3.79,0,6.82,1.6,6.65,2.36l-5.97,28.09c-1.18,5.32-.34,7.42,2.27,8.61.17.17-1.68,4.81-10.01,4.81-4.63,0-7.74-1.43-9.51-3.8-1.01-1.35-1.6-3.04-1.85-4.89-2.69,4.98-7.83,8.61-14.39,8.61-9.09,0-14.89-6.67-14.89-16.62ZM77.04,103.08l.93-4.56c-1.01-2.03-2.36-3.46-5.05-3.46-4.54,0-7.49,4.3-7.49,9.36,0,2.87,1.77,5.06,4.8,5.06,3.2,0,5.89-2.02,6.82-6.41Z"/><path d="M152.69,115.82c0-2.53.42-4.47,1.85-9.53.93-3.38,1.43-5.65,1.43-6.75,0-2.19-1.18-3.54-3.03-3.54-.93,0-2.1.51-3.2,1.52l-3.62,17.04c-1.51,7.17-4.04,9.53-9.09,9.53h-2.02c-5.3,0-10.18-2.19-8.58-9.53l2.86-13.5c.59-2.95-.42-5.06-2.52-5.06-1.26,0-2.19.42-3.28,1.18l-3.7,17.38c-1.51,7.17-4.04,9.53-9.09,9.53h-2.02c-5.3,0-10.18-2.19-8.58-9.53l6.82-32.31c.08-.42,2.61-1.35,5.81-1.35,3.96,0,7.74,1.69,9.59,5.74.34.84.67,1.86.84,2.95,3.96-5.65,8.58-9.36,15.48-9.36,5.64,0,10.27,3.46,11.53,8.94,3.62-5.31,8.16-8.94,14.73-8.94,7.49,0,11.87,5.65,11.87,12.99,0,2.95-.76,6.24-2.36,11.9-1.09,3.96-1.94,7.26-1.94,8.94,0,2.53,1.09,3.71,3.2,4.3.25.08-1.85,6.41-11.53,6.41-8.25,0-11.44-3.63-11.44-8.94Z"/><path d="M195.36,117c-1.01,1.86-2.19,3.29-3.62,4.39-2.36,1.86-5.47,2.62-9.34,2.62s-6.82-1.6-6.65-2.36l10.27-48.51c1.51-7.17,4.04-9.53,9.09-9.53h2.02c5.3,0,10.18,2.19,8.58,9.53l-2.52,12.06c2.61-3.04,6.31-4.98,10.94-4.98,9.26,0,15.74,6.75,15.74,17.55,0,13.75-7.99,26.91-20.95,26.91-5.3,0-11.02-2.36-13.55-7.68ZM211.01,101.14c0-3.29-1.6-5.74-5.22-5.74-1.94,0-3.87.84-5.3,2.36l-.76,3.38c-1.18,5.48.59,8.69,4.88,8.69s6.4-3.96,6.4-8.69Z"/><path d="M230.11,114.55l6.82-32.31c.08-.42,2.61-1.35,5.81-1.35,3.62,0,7.15,1.43,9.09,4.72.67,1.18,1.09,2.45,1.35,4.05,1.68-5.15,6.31-9.45,11.87-9.45s9,3.46,9,8.27c0,9.62-8.92,12.49-9.09,12.32-1.18-1.43-3.03-2.7-6.23-2.7-3.87,0-6.06,2.95-7.24,8.44l-1.68,8.01c-1.51,7.17-4.04,9.53-9.09,9.53h-2.02c-5.3,0-10.18-2.19-8.58-9.53Z"/><path d="M271.35,105.78c0-15.61,11.95-25.56,26.51-25.56,12.29,0,18.6,5.57,18.6,13.58s-5.47,13.92-24.07,13.92c-1.68,0-3.45,0-5.3-.08.25.93.67,1.69,1.26,2.28,1.26,1.35,3.28,2.03,6.06,2.03,4.46,0,8.33-2.03,10.35-4.64.08-.08,7.66.76,7.66,6.75,0,2.28-1.01,4.22-2.86,6.08-2.44,2.45-7.74,4.64-15.4,4.64-15.99,0-22.81-8.1-22.81-18.98ZM290.7,98.36c7.41,0,10.27-1.18,10.27-3.54,0-1.43-1.35-2.78-3.96-2.78-3.79,0-6.82,2.7-8.5,6.33.76.08,1.51,0,2.19,0Z"/><path d="M316.87,105.53c0-13.84,10.69-25.31,24.4-25.31,7.49,0,12.54,2.11,15.57,5.15,1.94,1.94,2.86,4.22,2.86,6.41,0,9.28-11.7,9.53-11.87,8.77-.59-2.87-2.27-5.15-6.14-5.15-4.46,0-7.32,3.96-7.32,8.44,0,3.21,1.94,5.74,5.97,5.74,2.44,0,4.8-1.1,6.31-3.71.34-.51,8.5,1.1,8.5,7.59,0,2.45-1.09,4.72-3.03,6.67-2.86,2.87-7.49,4.64-13.46,4.64-13.46,0-21.8-7-21.8-19.24Z"/><path d="M384.62,115.82c0-2.53.42-4.47,1.85-9.53.93-3.38,1.43-5.65,1.43-6.75,0-2.19-1.18-3.54-3.45-3.54-1.68,0-2.61.51-3.79,1.6l-3.62,16.96c-1.51,7.17-4.04,9.53-9.09,9.53h-2.02c-5.3,0-10.1-2.19-8.58-9.53l8.75-41.42c1.51-7.17,4.04-9.53,9.09-9.53h2.02c5.3,0,10.18,2.19,8.58,9.53l-3.28,15.35c3.11-4.81,8.16-8.27,14.31-8.27,7.41,0,11.87,5.15,11.87,12.99,0,2.95-.76,6.24-2.36,11.9-1.09,3.96-1.94,7.26-1.94,8.94,0,2.53,1.09,3.71,3.2,4.3.25.08-1.85,6.41-11.53,6.41-8.25,0-11.44-3.63-11.44-8.94Z"/><path d="M415.16,107.97l2.52-12.06h-.17c-4.12,0-6.65-2.19-6.65-5.31,0-1.52.67-5.4,2.61-7.34,1.26-1.27,2.69-1.94,6.65-1.94h.67l.08-.42c1.68-8.44,5.39-12.23,14.14-12.23,4.38,0,7.41,1.6,7.24,2.36l-2.19,10.29h2.95c4.54,0,6.98,2.19,6.98,5.32,0,1.52-.67,5.4-2.61,7.34-1.26,1.26-2.69,1.94-6.65,1.94h-4.12l-2.36,11.05c-.5,2.28.67,3.54,2.36,3.54s3.2-.67,4.46-1.69c.42-.34,2.69,1.35,2.69,4.98,0,2.87-1.09,5.23-3.03,7.17-2.61,2.62-6.48,3.97-11.53,3.97-11.78,0-16.24-6.58-14.05-16.96Z"/><path d="M3.09,56.5c-1.96-2.07-2.98-4.5-2.98-7.3,0-10,8.42-11.98,8.67-11.53,2.12,3.33,4.93,5.41,8.84,5.41,4.5,0,6.89-2.61,8.16-9.01l4.42-22.08c1.45-6.85,4.33-10.18,10.2-10.18h2.97c5.7,0,9.01,3.51,7.65,10.18l-5.18,26.04c-2.98,15.05-11.05,23.7-27.03,23.7-7.4,0-12.67-1.98-15.73-5.23Z"/><path d="M48.22,42.19c0-12.75,8.08-25.42,24.31-25.42,14.96,0,21.34,9.1,21.34,19.47,0,12.75-8.08,25.42-24.31,25.42-14.96,0-21.34-9.1-21.34-19.47ZM77.55,37.01c0-3.32-2.12-5.87-5.36-5.87-4.93,0-7.65,5.27-7.65,10.29,0,3.32,2.12,5.87,5.36,5.87,4.93,0,7.65-5.27,7.65-10.29Z"/><path d="M94.12,51.37l6.89-32.56c.08-.42,2.64-1.36,5.87-1.36,3.66,0,7.23,1.45,9.18,4.76.68,1.19,1.1,2.46,1.36,4.08,1.7-5.19,6.38-9.52,11.99-9.52s9.1,3.49,9.1,8.33c0,9.69-9.01,12.58-9.18,12.41-1.19-1.45-3.06-2.72-6.29-2.72-3.91,0-6.12,2.97-7.31,8.5l-1.7,8.08c-1.53,7.23-4.08,9.61-9.18,9.61h-2.04c-5.36,0-10.29-2.21-8.67-9.61Z"/><path d="M184.39,48.14c-1.28,5.44-.34,7.48,2.29,8.67.17.17-1.7,4.85-10.12,4.85-6.04,0-9.44-2.38-10.8-6.12-.25-.85-.51-1.7-.59-2.55-2.46,4.93-7.23,8.59-13.52,8.59-9.35,0-15.9-6.8-15.9-17.68,0-13.86,8.08-27.12,21.17-27.12,4.84,0,10.03,2.04,12.84,6.46l2.89-13.6C174.19,2.41,176.74.03,181.84.03h2.04c5.36,0,10.29,2.21,8.67,9.61l-8.16,38.51ZM166.29,39.81l.93-4.67c-1.02-1.96-2.46-3.4-5.53-3.4-4.67,0-6.97,4.25-6.97,9.1,0,3.15,1.62,5.44,5.1,5.44,2.81,0,5.53-2.04,6.46-6.46Z"/><path d="M190.17,44.83c0-14.28,9.1-28.05,22.61-28.05,5.02,0,10.29,2.29,12.67,7.4,1.36-2.38,3.06-4,5.19-5.1,2.12-1.11,4.68-1.62,7.74-1.62,3.83,0,6.89,1.62,6.72,2.38l-6.04,28.31c-1.19,5.36-.34,7.48,2.29,8.67.17.17-1.7,4.85-10.12,4.85-4.67,0-7.82-1.45-9.61-3.83-1.02-1.36-1.62-3.06-1.87-4.93-2.72,5.01-7.91,8.67-14.54,8.67-9.18,0-15.05-6.72-15.05-16.75ZM220.94,39.81l.93-4.59c-1.02-2.04-2.38-3.49-5.1-3.49-4.59,0-7.57,4.33-7.57,9.44,0,2.89,1.79,5.1,4.85,5.1,3.23,0,5.95-2.04,6.89-6.46Z"/><path d="M283.33,61.66c-8.33,0-11.56-3.66-11.56-9.01,0-2.55.42-4.5,1.87-9.61.93-3.4,1.44-5.7,1.44-6.8,0-2.21-1.19-3.57-3.48-3.57-1.7,0-2.64.51-3.83,1.62l-3.66,17.09c-1.53,7.23-4.08,9.61-9.18,9.61h-2.04c-5.36,0-10.29-2.21-8.67-9.61l6.89-32.56c.08-.42,2.64-1.36,5.87-1.36,3.83,0,7.57,1.62,9.44,5.27.51,1.02.93,2.12,1.19,3.4,4-5.7,8.76-9.35,16.07-9.35,7.91,0,12.41,5.18,12.41,13.09,0,2.97-.76,6.29-2.38,11.99-1.11,4-1.96,7.31-1.96,9.01,0,2.55,1.1,3.74,3.23,4.34.26.08-1.87,6.46-11.65,6.46Z"/></svg>