<?xml version="1.0" encoding="UTF-8"?><svg id="Layer_1" xmlns="http://www.w3.org/2000/svg" viewBox="0 0 450 125"><path d="M23.58,49.98c-3.2,3.12-7.49,4.91-11.93,4.91s-9.05-1.95-12.09-5.3c5.93-5.93,11.86-11.86,17.79-17.71V-.34h10.84v41.97c0,2.89-2.57,6.4-4.6,8.35ZM17.34,32.97l-9.36,9.36c.39.31.86.62,1.33.86l8.03-7.96v-2.26ZM17.34,36.25l-7.25,7.25c.62.23,1.25.31,1.87.31l5.38-5.38c0-.39.08-.78.08-1.09,0-.39-.08-.7-.08-1.09ZM13.29,43.66c1.95-.47,3.43-1.95,3.9-3.9l-3.9,3.9Z"/><path d="M64.77,55.9c-15.83,0-28.71-12.87-28.71-28.71S49.09-1.51,64.77-1.51s28.71,12.87,28.71,28.71-12.87,28.71-28.71,28.71ZM82.63,26.34c0-.47,0-.86-.08-1.25h-34.87c0,.55-.08,1.09-.08,1.64h35.02v-.39ZM47.61,27.43c.23,9.59,7.96,17.24,17.55,17.24s17.32-7.64,17.47-17.16l-35.02-.08ZM82.08,22.75h-33.93c-.16.55-.23,1.09-.31,1.64h34.63c-.16-.55-.23-1.09-.39-1.64ZM81.38,20.41h-32.45c-.23.55-.39,1.09-.55,1.64h33.54c-.16-.55-.39-1.09-.55-1.64ZM80.13,18.07h-30.03c-.31.55-.62,1.09-.86,1.64h31.75c-.23-.55-.55-1.09-.86-1.64ZM78.49,15.73h-26.75l-1.17,1.64h29.1l-1.17-1.64ZM76.08,13.39h-21.92c-.62.55-1.17,1.01-1.72,1.64h25.35c-.55-.62-1.09-1.09-1.72-1.64ZM72.25,11.05h-14.27c-.94.47-1.87,1.01-2.73,1.64h19.81c-.94-.62-1.87-1.17-2.81-1.64ZM65.16,9.57c-1.72,0-3.35.23-4.99.7h9.75c-1.56-.47-3.12-.7-4.76-.7Z"/><path d="M124.2,54.73l-.16-.16v.08h-.78v-.86l-1.56-1.56v2.42h-.78v-3.2l-1.56-1.56v4.76h-.78v-5.54l-1.56-1.56v7.1h-.78v-7.88l-1.56-1.56v9.44h-.78v-10.22l-1.56-1.56v11.78h-.78v-12.56l-1.56-1.56v14.12h-.78v-14.9l-1.56-1.56v16.46h-.78v-17.24l-1.56-1.56v18.8h-.78v-19.58l-1.56-1.56v21.14h-.78v-21.92l-.08-.08v-11.15h.08v-11h-.08V-.34h16.69c9.05,0,16.54,7.1,16.54,16.3s-7.49,16.69-16.69,16.69h-1.17l22.07,22.07h-15.37ZM104.55,10.51h-1.56v11h1.56v-11ZM106.88,10.51h-1.56v11h1.56v-11ZM109.22,10.51h-1.56v11h1.56v-11ZM111.56,10.51h-1.56v11h1.56v-11ZM113.91,10.51h-1.56v11h1.56v-11ZM116.25,10.51h-1.56v11h1.56v-11ZM118.59,10.51h-1.56v11h1.56v-11ZM120.93,10.9c-.47-.23-1.01-.31-1.56-.39v10.92c.55,0,1.09-.16,1.56-.39v-10.14ZM123.27,12.61c-.39-.55-.94-1.01-1.56-1.33v9.36c.62-.31,1.17-.78,1.56-1.4v-6.63ZM124.05,14.02v3.82c.23-.62.31-1.25.31-1.87,0-.7-.08-1.33-.31-1.95Z"/><path d="M153.84,54.97c-2.42,0-4.84-.08-7.25-.08v-10.92h.08V10.27h-.08V-.57h8.11c15.68,0,26.52,12.48,26.52,27.77s-11.47,27.77-27.38,27.77ZM149,10.27h-1.56v33.7h1.56V10.27ZM151.34,10.27h-1.56v33.7h1.56V10.27ZM153.68,10.27h-1.56v33.7h1.56V10.27ZM156.02,10.43c-.55-.08-1.01-.08-1.56-.16v33.7c.55,0,1.01-.08,1.56-.16V10.43ZM158.36,10.9c-.55-.16-1.01-.23-1.56-.31v33.07c.55-.08,1.01-.23,1.56-.39V10.9ZM160.7,11.68c-.55-.23-1.01-.39-1.56-.55v31.9c.55-.16,1.01-.39,1.56-.62V11.68ZM163.04,12.93c-.47-.31-1.01-.62-1.56-.86v29.95c.55-.23,1.09-.55,1.56-.86V12.93ZM165.38,14.8c-.47-.47-1.01-.94-1.56-1.33v27.15c.55-.39,1.09-.86,1.56-1.33V14.8ZM167.72,17.61c-.47-.7-1.01-1.4-1.56-2.03v22.93c.55-.62,1.09-1.33,1.56-2.03v-18.88ZM170.06,23.3c0-.94-1.09-3.43-1.56-4.37v16.22c.47-.86,1.56-3.35,1.56-4.29v-7.57Z"/><path d="M229.97,54.66l-5.54-11h-22.31l-5.54,11h-12.25c9.67-19.34,19.5-38.61,28.94-58.03.78,1.79,1.72,3.51,2.57,5.3l6.4,12.95c6.55,13.26,13.18,26.52,19.81,39.78h-12.09ZM223.26,41.32h-19.97l-.78,1.56h21.53l-.78-1.56ZM222.09,38.98h-17.63l-.78,1.56h19.19l-.78-1.56ZM220.92,36.64h-15.29l-.78,1.56h16.85l-.78-1.56ZM219.75,34.3h-12.87l-.86,1.56h14.51l-.78-1.56ZM218.58,31.96h-10.53l-.78,1.56h12.09l-.78-1.56ZM217.41,29.62h-8.19l-.78,1.56h9.75l-.78-1.56ZM216.24,27.28h-5.85l-.78,1.56h7.41l-.78-1.56ZM215.07,24.94h-3.51l-.78,1.56h5.07l-.78-1.56ZM213.9,22.6h-1.17l-.78,1.56h2.73l-.78-1.56ZM213.35,21.43l-.23.39h.39l-.16-.39Z"/><path d="M279.89,54.27v.39h-.78v-1.79l-1.56-2.65v4.45h-.78v-5.85l-1.56-2.65v8.5h-.78v-9.91l-1.56-2.65v12.56h-.78v-13.88l-1.56-2.73v16.61h-.78v-17.94l-1.56-2.73v20.67h-.78v-22l-1.56-2.73v24.73h-.78v-26.05l-1.56-2.73v28.78h-.78v-30.11l-1.56-2.73v32.84h-.78V20.49l-1.56-2.73v36.9h-.78V16.44l-1.56-2.73v40.95h-.78V12.38l-1.56-2.73v45.01h-.78V8.32l-1.56-2.73v49.06h-.78V4.27l-1.56-2.73v53.12h-.78V.21l-.31-.55h12.56l.08.08h.16V.05l1.56,2.73V-.26h.78v4.45l1.56,2.73V-.26h.78v8.5l1.56,2.73V-.26h.78v12.64l1.56,2.73V-.26h.78v16.69l1.56,2.73V-.26h.78v20.83l1.56,2.73V-.26h.78v24.96l1.56,2.73V-.26h.78v29.02l1.56,2.73V-.26h.78v33.15l.31.47v21.37l-.31-.47Z"/><path d="M5.02,124.33v-10.92h.16v-44.15h.78v44.15h1.56v-44.15h.78v44.15h1.56v-44.15h.78v44.15h1.56v-44.15h.78v44.15h1.56v-44.15h.78v44.15h1.56v-44.15h.78v44.15h1.56v-44.15h.78v44.15h1.56v-44.15h.78v44.15h1.56v-44.15h.78v44.15h1.56v-44.15h.78v44.15h1.56v-44.15h.78v44.15h12.48v10.92H5.02Z"/><path d="M89.88,124.26l-5.54-11h-22.31l-5.54,11h-12.25c9.67-19.34,19.5-38.61,28.94-58.03.78,1.79,1.72,3.51,2.57,5.3l6.4,12.95c6.55,13.26,13.18,26.52,19.81,39.78h-12.09ZM83.18,110.92h-19.97l-.78,1.56h21.53l-.78-1.56ZM82.01,108.58h-17.63l-.78,1.56h19.19l-.78-1.56ZM80.84,106.24h-15.29l-.78,1.56h16.85l-.78-1.56ZM79.67,103.9h-12.87l-.86,1.56h14.51l-.78-1.56ZM78.5,101.56h-10.53l-.78,1.56h12.09l-.78-1.56ZM77.33,99.22h-8.19l-.78,1.56h9.75l-.78-1.56ZM76.16,96.88h-5.85l-.78,1.56h7.41l-.78-1.56ZM74.98,94.54h-3.51l-.78,1.56h5.07l-.78-1.56ZM73.81,92.2h-1.17l-.78,1.56h2.73l-.78-1.56ZM73.27,91.03l-.23.39h.39l-.16-.39Z"/><path d="M132.47,125.97l-2.26-5.3v3.67h-.78v-5.46l-1.56-3.67v9.13h-.78v-11l-1.56-3.67v14.66h-.78v-16.46l-1.56-3.67v20.12h-.78v-21.92l-1.56-3.67v25.58h-.78v-27.46l-1.56-3.67v31.12h-.78v-32.92l-1.56-3.67v36.58h-.78v-38.38l-1.56-3.67v42.04h-.78v-43.92l-1.56-3.67v47.58h-.78v-49.38l-1.56-3.67v53.04h-.78c0-4.06.08-54.84-.08-55.07h11.86l17.16,40.87,14.82-40.8h.86c-6.86,18.88-13.88,37.68-20.51,56.63ZM153.14,124.33v-.7l-.23.62h-.78c.08-.31,1.01-2.81,1.01-2.96.16-1.25,0-3.2,0-4.52l-2.73,7.49h-.78l2.34-6.47c.47-1.33.86-1.95,1.17-3.28v-4.6l-5.23,14.35h-.78l3.98-11.08c.78-2.18,1.4-3.35,2.03-5.54v-4.52l-7.72,21.14h-.78l8.5-23.48v-4.6l-10.14,28.08h-.86l11-30.34v-4.52l-12.64,34.87h-.86l13.49-37.21v-4.52l-15.13,41.73h-.86l15.99-43.99v-4.6l-17.63,48.6h-.86l18.49-50.86v-4.29h10.84v55.23h-10.84Z"/><path d="M198.15,124.33h-22.39v-10.84h.08v-33.38h-.08v-10.84h16.69c9.05,0,16.54,7.1,16.54,16.3,0,3.35-1.01,6.63-2.89,9.36,3.74,3.2,6.01,7.96,6.01,12.87,0,8.11-5.93,15.21-13.96,16.54ZM178.18,80.11h-1.56v33.38h1.56v-33.38ZM180.52,80.11h-1.56v33.38h1.56v-33.38ZM182.86,80.11h-1.56v33.38h1.56v-33.38ZM185.2,80.11h-1.56v33.38h1.56v-33.38ZM187.54,102.26h-.47v-11.15h.47v-11h-1.56v33.38h1.56v-11.23ZM189.88,80.11h-1.56v11h1.56v-11ZM189.88,102.26h-1.56v11.23h1.56v-11.23ZM192.22,80.11h-1.56v11h1.56v-11ZM192.22,102.26h-1.56v11.23h1.56v-11.23ZM194.56,80.5c-.47-.23-1.01-.31-1.56-.39v10.92c.55,0,1.09-.16,1.56-.39v-10.14ZM194.56,102.26h-1.56v11.23h1.56v-11.23ZM196.9,82.21c-.39-.55-.94-1.01-1.56-1.33v9.36c.62-.31,1.17-.78,1.56-1.33v-6.71ZM196.9,102.42c-.31-.08-.55-.16-.86-.16h-.7v11.23h.7c.31,0,.55-.08.86-.16v-10.92ZM197.68,83.62v3.82c.23-.62.31-1.25.31-1.87,0-.7-.08-1.33-.31-1.95ZM199.24,103.59c-.47-.39-.94-.78-1.56-.94v10.45c.55-.23,1.09-.55,1.56-1.01v-8.5ZM200.02,104.44v6.79c.7-1.01,1.09-2.18,1.09-3.43,0-1.17-.39-2.42-1.09-3.35Z"/><path d="M244.01,124.33l-.16-.16v.08h-.78v-.86l-1.56-1.56v2.42h-.78v-3.2l-1.56-1.56v4.76h-.78v-5.54l-1.56-1.56v7.1h-.78v-7.88l-1.56-1.56v9.44h-.78v-10.22l-1.56-1.56v11.78h-.78v-12.56l-1.56-1.56v14.12h-.78v-14.9l-1.56-1.56v16.46h-.78v-17.24l-1.56-1.56v18.8h-.78v-19.58l-1.56-1.56v21.14h-.78v-21.92l-.08-.08v-11.15h.08v-11h-.08v-10.84h16.69c9.05,0,16.54,7.1,16.54,16.3s-7.49,16.69-16.69,16.69h-1.17l22.08,22.08h-15.37ZM224.35,80.11h-1.56v11h1.56v-11ZM226.69,80.11h-1.56v11h1.56v-11ZM229.03,80.11h-1.56v11h1.56v-11ZM231.37,80.11h-1.56v11h1.56v-11ZM233.71,80.11h-1.56v11h1.56v-11ZM236.05,80.11h-1.56v11h1.56v-11ZM238.39,80.11h-1.56v11h1.56v-11ZM240.73,80.5c-.47-.23-1.01-.31-1.56-.39v10.92c.55,0,1.09-.16,1.56-.39v-10.14ZM243.07,82.21c-.39-.55-.94-1.01-1.56-1.33v9.36c.62-.31,1.17-.78,1.56-1.4v-6.63ZM243.85,83.62v3.82c.23-.62.31-1.25.31-1.87,0-.7-.08-1.33-.31-1.95Z"/><path d="M266.31,80.19v-10.92h36.19v10.92h-36.19ZM266.31,102.26v-11.15h22.62v11.15h-22.62ZM266.31,124.33v-10.92h36.04v10.92h-36.04ZM266.39,82.53v-.78h22.46v.78h-22.46ZM266.39,84.86v-.78h22.46v.78h-22.46ZM266.39,87.21v-.78h22.46v.78h-22.46ZM266.39,89.55v-.78h22.46v.78h-22.46ZM266.39,104.76v-.78h22.46v.78h-22.46ZM266.39,107.1v-.78h22.46v.78h-22.46ZM266.39,109.44v-.78h22.46v.78h-22.46ZM266.39,111.78v-.78h22.46v.78h-22.46Z"/><path d="M352.58,83.23c-3.28-3.2-7.64-5.15-12.17-5.07h-.31v35.02h.16v11.31c-.23-.08-.55-.08-.78-.08-15.76,0-28.32-13.1-28.32-28.71s12.87-28.71,28.71-28.71c7.64,0,14.98,3.12,20.36,8.5l-7.64,7.72ZM322.94,92.74c-.16.94-.23,1.95-.23,2.89,0,1.01.08,1.95.23,2.96v-5.85ZM325.28,86.5c-.31.47-1.56,2.81-1.56,3.28v11.78c0,.47,1.25,2.81,1.56,3.28v-18.33ZM327.62,83.46c-.55.62-1.09,1.25-1.56,1.87v20.67c.47.7,1.01,1.33,1.56,1.87v-24.41ZM329.96,81.43c-.55.39-1.09.86-1.56,1.33v25.9c.47.47,1.01.86,1.56,1.25v-28.47ZM332.3,80.03c-.55.23-1.09.55-1.56.86v29.56c.47.31,1.01.62,1.56.94v-31.36ZM334.64,79.02c-.55.23-1.01.39-1.56.62v32.06c.55.23,1.01.47,1.56.62v-33.31ZM336.98,78.47c-.55.08-1.01.16-1.56.31v33.78c.55.16,1.01.31,1.56.39v-34.48ZM339.32,78.16c-.55,0-1.01.08-1.56.16v34.71c.55.08,1.01.16,1.56.16v-35.02Z"/><path d="M366.93,124.33v-55.07h10.84v26.21h11.62v-26.21h10.84v55.07h-33.31ZM389.4,96.25h-11.62v1.56h11.62v-1.56ZM389.4,98.59h-11.62v1.56h11.62v-1.56ZM389.4,100.93h-11.62v1.56h11.62v-1.56ZM389.4,103.27h-11.62v1.56h11.62v-1.56ZM389.4,105.61h-11.62v1.56h11.62v-1.56ZM389.4,107.95h-11.62v1.56h11.62v-1.56ZM389.4,110.29h-11.62v1.56h11.62v-1.56ZM389.4,112.63h-11.62v1.56h11.62v-1.56ZM389.4,114.97h-11.62v1.56h11.62v-1.56ZM389.4,117.31h-11.62v1.56h11.62v-1.56ZM389.4,119.65h-11.62v1.56h11.62v-1.56ZM389.4,121.99h-11.62v1.56h11.62v-1.56Z"/><path d="M439.86,80.11v44.23h-.78v-44.23h-1.56v44.23h-.78v-44.23h-1.56v44.23h-.78v-44.23h-1.56v44.23h-.78v-44.23h-1.56v44.23h-.78v-44.23h-1.56v44.23h-.78v-44.23h-1.56v44.23h-.78v-44.23h-1.56v44.23h-.78v-44.23h-1.56v44.23h-.78v-44.23h-1.56v44.23h-.78v-44.23h-9.98v-10.92h41.5v10.92h-9.67Z"/></svg>